<mxfile host="app.diagrams.net" agent="Mozilla/5.0 (X11; Ubuntu; Linux x86_64; rv:128.0) Gecko/20100101 Firefox/128.0" version="27.1.1">
  <diagram id="DXyUeCYXyZXWEy7sgAMY" name="Page-1">
    <mxGraphModel dx="2466" dy="1155" grid="1" gridSize="10" guides="1" tooltips="1" connect="1" arrows="1" fold="1" page="0" pageScale="1" pageWidth="850" pageHeight="1100" math="0" shadow="0">
      <root>
        <mxCell id="0" />
        <mxCell id="1" parent="0" />
        <mxCell id="ugX7uagLTzUMmo3rIZk3-78" value="" style="rounded=0;whiteSpace=wrap;html=1;fontSize=12;" parent="1" vertex="1">
          <mxGeometry x="436" y="90" width="449" height="570" as="geometry" />
        </mxCell>
        <mxCell id="ugX7uagLTzUMmo3rIZk3-69" value="" style="rounded=0;whiteSpace=wrap;html=1;fontSize=12;" parent="1" vertex="1">
          <mxGeometry x="-167" y="146" width="442" height="451" as="geometry" />
        </mxCell>
        <mxCell id="ugX7uagLTzUMmo3rIZk3-112" value="" style="rounded=0;whiteSpace=wrap;html=1;fontSize=12;" parent="1" vertex="1">
          <mxGeometry x="-260" y="712.5" width="590" height="539" as="geometry" />
        </mxCell>
        <mxCell id="ugX7uagLTzUMmo3rIZk3-149" value="" style="rounded=0;whiteSpace=wrap;html=1;fontSize=12;" parent="1" vertex="1">
          <mxGeometry x="351" y="686.5" width="609" height="585.5" as="geometry" />
        </mxCell>
        <mxCell id="ugX7uagLTzUMmo3rIZk3-135" value="" style="rounded=1;whiteSpace=wrap;html=1;fontSize=21;fillColor=none;dashed=1;" parent="1" vertex="1">
          <mxGeometry x="100" y="716.5" width="215" height="530" as="geometry" />
        </mxCell>
        <mxCell id="ugX7uagLTzUMmo3rIZk3-79" value="" style="whiteSpace=wrap;html=1;align=right;" parent="1" vertex="1">
          <mxGeometry x="446" y="130" width="429" height="520" as="geometry" />
        </mxCell>
        <mxCell id="ugX7uagLTzUMmo3rIZk3-84" value="" style="whiteSpace=wrap;html=1;align=right;" parent="1" vertex="1">
          <mxGeometry x="458" y="190" width="407" height="450" as="geometry" />
        </mxCell>
        <mxCell id="fCiBUrxiR4FyChu-y8---31" value="" style="rounded=0;whiteSpace=wrap;html=1;" vertex="1" parent="1">
          <mxGeometry x="635" y="201" width="220" height="429" as="geometry" />
        </mxCell>
        <mxCell id="ugX7uagLTzUMmo3rIZk3-111" value="" style="rounded=0;whiteSpace=wrap;html=1;fontSize=21;" parent="1" vertex="1">
          <mxGeometry x="693" y="282.5" width="149" height="238" as="geometry" />
        </mxCell>
        <mxCell id="ugX7uagLTzUMmo3rIZk3-5" value="" style="whiteSpace=wrap;html=1;align=right;" parent="1" vertex="1">
          <mxGeometry x="-157" y="188" width="422" height="397" as="geometry" />
        </mxCell>
        <mxCell id="ugX7uagLTzUMmo3rIZk3-75" value="" style="whiteSpace=wrap;html=1;align=right;" parent="1" vertex="1">
          <mxGeometry x="75" y="257" width="176" height="318" as="geometry" />
        </mxCell>
        <mxCell id="ugX7uagLTzUMmo3rIZk3-12" value="" style="whiteSpace=wrap;html=1;align=right;" parent="1" vertex="1">
          <mxGeometry x="-145" y="257" width="176" height="318" as="geometry" />
        </mxCell>
        <mxCell id="ugX7uagLTzUMmo3rIZk3-25" value="Config" style="swimlane;fontStyle=0;childLayout=stackLayout;horizontal=1;startSize=30;horizontalStack=0;resizeParent=1;resizeParentMax=0;resizeLast=0;collapsible=1;marginBottom=0;fontSize=16;fillColor=#cdeb8b;strokeColor=#36393d;" parent="1" vertex="1">
          <mxGeometry x="-127" y="326.5" width="140" height="120" as="geometry" />
        </mxCell>
        <mxCell id="ugX7uagLTzUMmo3rIZk3-26" value="Hostname : &lt;Login&gt;S" style="text;strokeColor=none;fillColor=none;align=left;verticalAlign=middle;spacingLeft=4;spacingRight=4;overflow=hidden;points=[[0,0.5],[1,0.5]];portConstraint=eastwest;rotatable=0;fontSize=12;" parent="ugX7uagLTzUMmo3rIZk3-25" vertex="1">
          <mxGeometry y="30" width="140" height="30" as="geometry" />
        </mxCell>
        <mxCell id="ugX7uagLTzUMmo3rIZk3-27" value="IP : 192.168.42.110&#xa;(Dedicated on eth1)" style="text;strokeColor=none;fillColor=none;align=left;verticalAlign=middle;spacingLeft=4;spacingRight=4;overflow=hidden;points=[[0,0.5],[1,0.5]];portConstraint=eastwest;rotatable=0;fontSize=12;" parent="ugX7uagLTzUMmo3rIZk3-25" vertex="1">
          <mxGeometry y="60" width="140" height="30" as="geometry" />
        </mxCell>
        <mxCell id="ugX7uagLTzUMmo3rIZk3-28" value="ssh without password" style="text;strokeColor=none;fillColor=none;align=left;verticalAlign=middle;spacingLeft=4;spacingRight=4;overflow=hidden;points=[[0,0.5],[1,0.5]];portConstraint=eastwest;rotatable=0;fontSize=12;" parent="ugX7uagLTzUMmo3rIZk3-25" vertex="1">
          <mxGeometry y="90" width="140" height="30" as="geometry" />
        </mxCell>
        <mxCell id="ugX7uagLTzUMmo3rIZk3-29" value="Config" style="swimlane;fontStyle=0;childLayout=stackLayout;horizontal=1;startSize=30;horizontalStack=0;resizeParent=1;resizeParentMax=0;resizeLast=0;collapsible=1;marginBottom=0;fontSize=16;fillColor=#cdeb8b;strokeColor=#36393d;" parent="1" vertex="1">
          <mxGeometry x="93" y="326.5" width="140" height="120" as="geometry" />
        </mxCell>
        <mxCell id="ugX7uagLTzUMmo3rIZk3-30" value="Hostname : &lt;Login&gt;SW" style="text;strokeColor=none;fillColor=none;align=left;verticalAlign=middle;spacingLeft=4;spacingRight=4;overflow=hidden;points=[[0,0.5],[1,0.5]];portConstraint=eastwest;rotatable=0;fontSize=12;" parent="ugX7uagLTzUMmo3rIZk3-29" vertex="1">
          <mxGeometry y="30" width="140" height="30" as="geometry" />
        </mxCell>
        <mxCell id="ugX7uagLTzUMmo3rIZk3-31" value="IP : 192.168.42.111&#xa;(Dedicated on eth1)" style="text;strokeColor=none;fillColor=none;align=left;verticalAlign=middle;spacingLeft=4;spacingRight=4;overflow=hidden;points=[[0,0.5],[1,0.5]];portConstraint=eastwest;rotatable=0;fontSize=12;" parent="ugX7uagLTzUMmo3rIZk3-29" vertex="1">
          <mxGeometry y="60" width="140" height="30" as="geometry" />
        </mxCell>
        <mxCell id="ugX7uagLTzUMmo3rIZk3-32" value="ssh without password" style="text;strokeColor=none;fillColor=none;align=left;verticalAlign=middle;spacingLeft=4;spacingRight=4;overflow=hidden;points=[[0,0.5],[1,0.5]];portConstraint=eastwest;rotatable=0;fontSize=12;" parent="ugX7uagLTzUMmo3rIZk3-29" vertex="1">
          <mxGeometry y="90" width="140" height="30" as="geometry" />
        </mxCell>
        <mxCell id="ugX7uagLTzUMmo3rIZk3-33" value="Install" style="swimlane;fontStyle=0;childLayout=stackLayout;horizontal=1;startSize=30;horizontalStack=0;resizeParent=1;resizeParentMax=0;resizeLast=0;collapsible=1;marginBottom=0;fontSize=16;fillColor=#cdeb8b;strokeColor=#36393d;" parent="1" vertex="1">
          <mxGeometry x="-127" y="468" width="140" height="90" as="geometry" />
        </mxCell>
        <mxCell id="ugX7uagLTzUMmo3rIZk3-34" value="K3s in controller mode" style="text;strokeColor=none;fillColor=none;align=left;verticalAlign=middle;spacingLeft=4;spacingRight=4;overflow=hidden;points=[[0,0.5],[1,0.5]];portConstraint=eastwest;rotatable=0;fontSize=12;" parent="ugX7uagLTzUMmo3rIZk3-33" vertex="1">
          <mxGeometry y="30" width="140" height="30" as="geometry" />
        </mxCell>
        <mxCell id="ugX7uagLTzUMmo3rIZk3-41" value="kubectl" style="text;strokeColor=none;fillColor=none;align=left;verticalAlign=middle;spacingLeft=4;spacingRight=4;overflow=hidden;points=[[0,0.5],[1,0.5]];portConstraint=eastwest;rotatable=0;fontSize=12;" parent="ugX7uagLTzUMmo3rIZk3-33" vertex="1">
          <mxGeometry y="60" width="140" height="30" as="geometry" />
        </mxCell>
        <mxCell id="ugX7uagLTzUMmo3rIZk3-38" value="Install" style="swimlane;fontStyle=0;childLayout=stackLayout;horizontal=1;startSize=30;horizontalStack=0;resizeParent=1;resizeParentMax=0;resizeLast=0;collapsible=1;marginBottom=0;fontSize=16;fillColor=#cdeb8b;strokeColor=#36393d;" parent="1" vertex="1">
          <mxGeometry x="93" y="468" width="140" height="90" as="geometry" />
        </mxCell>
        <mxCell id="ugX7uagLTzUMmo3rIZk3-39" value="K3s in agent mode" style="text;strokeColor=none;fillColor=none;align=left;verticalAlign=middle;spacingLeft=4;spacingRight=4;overflow=hidden;points=[[0,0.5],[1,0.5]];portConstraint=eastwest;rotatable=0;fontSize=12;" parent="ugX7uagLTzUMmo3rIZk3-38" vertex="1">
          <mxGeometry y="30" width="140" height="30" as="geometry" />
        </mxCell>
        <mxCell id="ugX7uagLTzUMmo3rIZk3-42" value="kubectl" style="text;strokeColor=none;fillColor=none;align=left;verticalAlign=middle;spacingLeft=4;spacingRight=4;overflow=hidden;points=[[0,0.5],[1,0.5]];portConstraint=eastwest;rotatable=0;fontSize=12;" parent="ugX7uagLTzUMmo3rIZk3-38" vertex="1">
          <mxGeometry y="60" width="140" height="30" as="geometry" />
        </mxCell>
        <mxCell id="ugX7uagLTzUMmo3rIZk3-49" value="Config" style="swimlane;fontStyle=0;childLayout=stackLayout;horizontal=1;startSize=30;horizontalStack=0;resizeParent=1;resizeParentMax=0;resizeLast=0;collapsible=1;marginBottom=0;fontSize=16;fillColor=#cdeb8b;strokeColor=#36393d;" parent="1" vertex="1">
          <mxGeometry x="476" y="287" width="140" height="90" as="geometry" />
        </mxCell>
        <mxCell id="ugX7uagLTzUMmo3rIZk3-50" value="Hostname : &lt;Login&gt;S" style="text;strokeColor=none;fillColor=none;align=left;verticalAlign=middle;spacingLeft=4;spacingRight=4;overflow=hidden;points=[[0,0.5],[1,0.5]];portConstraint=eastwest;rotatable=0;fontSize=12;" parent="ugX7uagLTzUMmo3rIZk3-49" vertex="1">
          <mxGeometry y="30" width="140" height="30" as="geometry" />
        </mxCell>
        <mxCell id="ugX7uagLTzUMmo3rIZk3-51" value="IP : 192.168.42.110&#xa;(Dedicated on eth1)" style="text;strokeColor=none;fillColor=none;align=left;verticalAlign=middle;spacingLeft=4;spacingRight=4;overflow=hidden;points=[[0,0.5],[1,0.5]];portConstraint=eastwest;rotatable=0;fontSize=12;" parent="ugX7uagLTzUMmo3rIZk3-49" vertex="1">
          <mxGeometry y="60" width="140" height="30" as="geometry" />
        </mxCell>
        <mxCell id="ugX7uagLTzUMmo3rIZk3-53" value="Install" style="swimlane;fontStyle=0;childLayout=stackLayout;horizontal=1;startSize=30;horizontalStack=0;resizeParent=1;resizeParentMax=0;resizeLast=0;collapsible=1;marginBottom=0;fontSize=16;fillColor=#cdeb8b;strokeColor=#36393d;" parent="1" vertex="1">
          <mxGeometry x="476" y="391" width="140" height="90" as="geometry" />
        </mxCell>
        <mxCell id="ugX7uagLTzUMmo3rIZk3-54" value="K3s in server mode" style="text;strokeColor=none;fillColor=none;align=left;verticalAlign=middle;spacingLeft=4;spacingRight=4;overflow=hidden;points=[[0,0.5],[1,0.5]];portConstraint=eastwest;rotatable=0;fontSize=12;" parent="ugX7uagLTzUMmo3rIZk3-53" vertex="1">
          <mxGeometry y="30" width="140" height="30" as="geometry" />
        </mxCell>
        <mxCell id="ugX7uagLTzUMmo3rIZk3-55" value="kubectl" style="text;strokeColor=none;fillColor=none;align=left;verticalAlign=middle;spacingLeft=4;spacingRight=4;overflow=hidden;points=[[0,0.5],[1,0.5]];portConstraint=eastwest;rotatable=0;fontSize=12;" parent="ugX7uagLTzUMmo3rIZk3-53" vertex="1">
          <mxGeometry y="60" width="140" height="30" as="geometry" />
        </mxCell>
        <mxCell id="ugX7uagLTzUMmo3rIZk3-59" value="containous/whoami" style="whiteSpace=wrap;html=1;align=center;verticalAlign=bottom;" parent="1" vertex="1">
          <mxGeometry x="708" y="302.5" width="120" height="60" as="geometry" />
        </mxCell>
        <mxCell id="ugX7uagLTzUMmo3rIZk3-63" value="&lt;div&gt;coffee&lt;/div&gt;&lt;div&gt;snake&lt;/div&gt;" style="whiteSpace=wrap;html=1;align=right;" parent="1" vertex="1">
          <mxGeometry x="707.5" y="212" width="120" height="60" as="geometry" />
        </mxCell>
        <mxCell id="ugX7uagLTzUMmo3rIZk3-65" value="marcincuber/2048-game" style="whiteSpace=wrap;html=1;align=center;verticalAlign=bottom;" parent="1" vertex="1">
          <mxGeometry x="693" y="528" width="152.5" height="86" as="geometry" />
        </mxCell>
        <mxCell id="ugX7uagLTzUMmo3rIZk3-71" value="&lt;font style=&quot;font-size: 21px&quot;&gt;Part 1&lt;/font&gt;" style="text;html=1;strokeColor=none;fillColor=none;align=center;verticalAlign=middle;whiteSpace=wrap;rounded=0;fontSize=12;" parent="1" vertex="1">
          <mxGeometry x="-161" y="150" width="60" height="30" as="geometry" />
        </mxCell>
        <mxCell id="ugX7uagLTzUMmo3rIZk3-72" value="Vagrant" style="text;html=1;strokeColor=none;fillColor=none;align=center;verticalAlign=middle;whiteSpace=wrap;rounded=0;fontSize=21;" parent="1" vertex="1">
          <mxGeometry x="-85" y="203" width="86" height="30" as="geometry" />
        </mxCell>
        <mxCell id="ugX7uagLTzUMmo3rIZk3-73" value="Alpine VM" style="text;html=1;strokeColor=none;fillColor=none;align=center;verticalAlign=middle;whiteSpace=wrap;rounded=0;fontSize=21;" parent="1" vertex="1">
          <mxGeometry x="-89.83" y="272" width="115" height="30" as="geometry" />
        </mxCell>
        <mxCell id="ugX7uagLTzUMmo3rIZk3-100" value="&lt;font style=&quot;font-size: 21px&quot;&gt;Part 2&lt;/font&gt;" style="text;html=1;strokeColor=none;fillColor=none;align=center;verticalAlign=middle;whiteSpace=wrap;rounded=0;fontSize=12;" parent="1" vertex="1">
          <mxGeometry x="442" y="98" width="60" height="30" as="geometry" />
        </mxCell>
        <mxCell id="ugX7uagLTzUMmo3rIZk3-101" value="Vagrant" style="text;html=1;strokeColor=none;fillColor=none;align=center;verticalAlign=middle;whiteSpace=wrap;rounded=0;fontSize=21;" parent="1" vertex="1">
          <mxGeometry x="518" y="146" width="86" height="30" as="geometry" />
        </mxCell>
        <mxCell id="ugX7uagLTzUMmo3rIZk3-113" value="&lt;font style=&quot;font-size: 21px&quot;&gt;Part 3&lt;/font&gt;" style="text;html=1;strokeColor=none;fillColor=none;align=center;verticalAlign=middle;whiteSpace=wrap;rounded=0;fontSize=12;" parent="1" vertex="1">
          <mxGeometry x="-250" y="716.5" width="60" height="30" as="geometry" />
        </mxCell>
        <mxCell id="ugX7uagLTzUMmo3rIZk3-114" value="" style="whiteSpace=wrap;html=1;align=right;" parent="1" vertex="1">
          <mxGeometry x="-239" y="822.5" width="219" height="293.5" as="geometry" />
        </mxCell>
        <mxCell id="ugX7uagLTzUMmo3rIZk3-121" value="" style="rounded=0;whiteSpace=wrap;html=1;fontSize=21;" parent="1" vertex="1">
          <mxGeometry x="-230" y="888.5" width="200" height="67.5" as="geometry" />
        </mxCell>
        <mxCell id="ugX7uagLTzUMmo3rIZk3-122" value="" style="shape=image;imageAspect=0;aspect=fixed;verticalLabelPosition=bottom;verticalAlign=top;fontSize=21;image=https://cncf-branding.netlify.app/img/projects/argo/icon/color/argo-icon-color.png;" parent="1" vertex="1">
          <mxGeometry x="-227" y="895.5" width="57" height="57" as="geometry" />
        </mxCell>
        <mxCell id="fCiBUrxiR4FyChu-y8---7" style="edgeStyle=orthogonalEdgeStyle;rounded=0;orthogonalLoop=1;jettySize=auto;html=1;" edge="1" parent="1" source="ugX7uagLTzUMmo3rIZk3-121" target="ugX7uagLTzUMmo3rIZk3-124">
          <mxGeometry relative="1" as="geometry" />
        </mxCell>
        <mxCell id="fCiBUrxiR4FyChu-y8---8" value="&lt;font style=&quot;font-size: 21px;&quot;&gt;Deploy&lt;/font&gt;" style="edgeLabel;html=1;align=center;verticalAlign=middle;resizable=0;points=[];" vertex="1" connectable="0" parent="fCiBUrxiR4FyChu-y8---7">
          <mxGeometry x="-0.1083" y="-1" relative="1" as="geometry">
            <mxPoint as="offset" />
          </mxGeometry>
        </mxCell>
        <mxCell id="ugX7uagLTzUMmo3rIZk3-123" value="Argo CD" style="text;html=1;strokeColor=none;fillColor=none;align=center;verticalAlign=middle;whiteSpace=wrap;rounded=0;fontSize=21;" parent="1" vertex="1">
          <mxGeometry x="-160" y="909" width="85" height="30" as="geometry" />
        </mxCell>
        <mxCell id="ugX7uagLTzUMmo3rIZk3-124" value="APP&amp;nbsp; &amp;nbsp; &amp;nbsp; &amp;nbsp; &amp;nbsp; &amp;nbsp;" style="whiteSpace=wrap;html=1;align=right;" parent="1" vertex="1">
          <mxGeometry x="-220" y="1034.5" width="180" height="60" as="geometry" />
        </mxCell>
        <mxCell id="ugX7uagLTzUMmo3rIZk3-129" value="" style="rounded=0;whiteSpace=wrap;html=1;fontSize=21;" parent="1" vertex="1">
          <mxGeometry x="117.5" y="752.5" width="180" height="243" as="geometry" />
        </mxCell>
        <mxCell id="ugX7uagLTzUMmo3rIZk3-130" value="" style="rounded=0;whiteSpace=wrap;html=1;fontSize=21;" parent="1" vertex="1">
          <mxGeometry x="117.5" y="1005.5" width="180" height="230" as="geometry" />
        </mxCell>
        <mxCell id="ugX7uagLTzUMmo3rIZk3-132" value="Github" style="text;html=1;strokeColor=none;fillColor=none;align=center;verticalAlign=middle;whiteSpace=wrap;rounded=0;fontSize=21;" parent="1" vertex="1">
          <mxGeometry x="197.5" y="767.5" width="60" height="30" as="geometry" />
        </mxCell>
        <mxCell id="ugX7uagLTzUMmo3rIZk3-134" value="Docker hub" style="text;html=1;strokeColor=none;fillColor=none;align=center;verticalAlign=middle;whiteSpace=wrap;rounded=0;fontSize=21;" parent="1" vertex="1">
          <mxGeometry x="177.5" y="1019" width="110" height="30" as="geometry" />
        </mxCell>
        <mxCell id="ugX7uagLTzUMmo3rIZk3-136" value="Online" style="text;html=1;strokeColor=none;fillColor=none;align=center;verticalAlign=middle;whiteSpace=wrap;rounded=0;dashed=1;fontSize=21;" parent="1" vertex="1">
          <mxGeometry x="177.5" y="722.5" width="60" height="30" as="geometry" />
        </mxCell>
        <mxCell id="ugX7uagLTzUMmo3rIZk3-147" style="edgeStyle=orthogonalEdgeStyle;rounded=0;orthogonalLoop=1;jettySize=auto;html=1;fontSize=21;" parent="1" source="ugX7uagLTzUMmo3rIZk3-137" target="ugX7uagLTzUMmo3rIZk3-121" edge="1">
          <mxGeometry relative="1" as="geometry">
            <Array as="points">
              <mxPoint x="40" y="874" />
              <mxPoint x="40" y="916" />
            </Array>
          </mxGeometry>
        </mxCell>
        <mxCell id="ugX7uagLTzUMmo3rIZk3-148" value="Clone" style="edgeLabel;html=1;align=center;verticalAlign=middle;resizable=0;points=[];fontSize=21;" parent="ugX7uagLTzUMmo3rIZk3-147" vertex="1" connectable="0">
          <mxGeometry x="-0.1034" y="3" relative="1" as="geometry">
            <mxPoint x="-8" y="19" as="offset" />
          </mxGeometry>
        </mxCell>
        <mxCell id="ugX7uagLTzUMmo3rIZk3-137" value="Config files" style="rounded=0;whiteSpace=wrap;html=1;fontSize=21;" parent="1" vertex="1">
          <mxGeometry x="147.5" y="844" width="120" height="60" as="geometry" />
        </mxCell>
        <mxCell id="ugX7uagLTzUMmo3rIZk3-144" style="edgeStyle=orthogonalEdgeStyle;rounded=0;orthogonalLoop=1;jettySize=auto;html=1;fontSize=21;" parent="1" source="ugX7uagLTzUMmo3rIZk3-140" target="ugX7uagLTzUMmo3rIZk3-121" edge="1">
          <mxGeometry relative="1" as="geometry">
            <Array as="points">
              <mxPoint x="40" y="1112" />
              <mxPoint x="40" y="922" />
            </Array>
          </mxGeometry>
        </mxCell>
        <mxCell id="ugX7uagLTzUMmo3rIZk3-140" value="APP v1&amp;nbsp; &amp;nbsp; &amp;nbsp; &amp;nbsp;" style="whiteSpace=wrap;html=1;align=right;" parent="1" vertex="1">
          <mxGeometry x="121.5" y="1079.5" width="170" height="60" as="geometry" />
        </mxCell>
        <mxCell id="ugX7uagLTzUMmo3rIZk3-145" style="edgeStyle=orthogonalEdgeStyle;rounded=0;orthogonalLoop=1;jettySize=auto;html=1;fontSize=21;" parent="1" source="ugX7uagLTzUMmo3rIZk3-142" target="ugX7uagLTzUMmo3rIZk3-121" edge="1">
          <mxGeometry relative="1" as="geometry">
            <Array as="points">
              <mxPoint x="40" y="1181" />
              <mxPoint x="40" y="922" />
            </Array>
          </mxGeometry>
        </mxCell>
        <mxCell id="ugX7uagLTzUMmo3rIZk3-146" value="Pull" style="edgeLabel;html=1;align=center;verticalAlign=middle;resizable=0;points=[];fontSize=21;" parent="ugX7uagLTzUMmo3rIZk3-145" vertex="1" connectable="0">
          <mxGeometry x="0.2975" y="-3" relative="1" as="geometry">
            <mxPoint x="-3" y="3" as="offset" />
          </mxGeometry>
        </mxCell>
        <mxCell id="ugX7uagLTzUMmo3rIZk3-142" value="APP v2&amp;nbsp; &amp;nbsp; &amp;nbsp; &amp;nbsp;" style="whiteSpace=wrap;html=1;align=right;" parent="1" vertex="1">
          <mxGeometry x="121.5" y="1148.5" width="170" height="60" as="geometry" />
        </mxCell>
        <mxCell id="ugX7uagLTzUMmo3rIZk3-150" value="&lt;font style=&quot;font-size: 21px&quot;&gt;Bonus&lt;/font&gt;" style="text;html=1;strokeColor=none;fillColor=none;align=center;verticalAlign=middle;whiteSpace=wrap;rounded=0;fontSize=12;" parent="1" vertex="1">
          <mxGeometry x="361" y="690.5" width="60" height="30" as="geometry" />
        </mxCell>
        <mxCell id="ugX7uagLTzUMmo3rIZk3-154" value="" style="whiteSpace=wrap;html=1;align=right;" parent="1" vertex="1">
          <mxGeometry x="372" y="720" width="578" height="540" as="geometry" />
        </mxCell>
        <mxCell id="ugX7uagLTzUMmo3rIZk3-156" value="" style="rounded=0;whiteSpace=wrap;html=1;fontSize=21;" parent="1" vertex="1">
          <mxGeometry x="381" y="1070.5" width="200" height="70" as="geometry" />
        </mxCell>
        <mxCell id="ugX7uagLTzUMmo3rIZk3-157" value="" style="shape=image;imageAspect=0;aspect=fixed;verticalLabelPosition=bottom;verticalAlign=top;fontSize=21;image=https://cncf-branding.netlify.app/img/projects/argo/icon/color/argo-icon-color.png;" parent="1" vertex="1">
          <mxGeometry x="384" y="1077.5" width="57" height="57" as="geometry" />
        </mxCell>
        <mxCell id="ugX7uagLTzUMmo3rIZk3-158" value="Argo CD" style="text;html=1;strokeColor=none;fillColor=none;align=center;verticalAlign=middle;whiteSpace=wrap;rounded=0;fontSize=21;" parent="1" vertex="1">
          <mxGeometry x="451" y="1091" width="85" height="30" as="geometry" />
        </mxCell>
        <mxCell id="ugX7uagLTzUMmo3rIZk3-160" value="APP&amp;nbsp; &amp;nbsp; &amp;nbsp; &amp;nbsp; &amp;nbsp; &amp;nbsp;" style="whiteSpace=wrap;html=1;align=right;" parent="1" vertex="1">
          <mxGeometry x="391" y="1176.5" width="180" height="60" as="geometry" />
        </mxCell>
        <mxCell id="ugX7uagLTzUMmo3rIZk3-164" value="" style="rounded=0;whiteSpace=wrap;html=1;fontSize=21;" parent="1" vertex="1">
          <mxGeometry x="381" y="790" width="559" height="260" as="geometry" />
        </mxCell>
        <mxCell id="ugX7uagLTzUMmo3rIZk3-167" value="Gitlab" style="text;html=1;strokeColor=none;fillColor=none;align=center;verticalAlign=middle;whiteSpace=wrap;rounded=0;fontSize=21;" parent="1" vertex="1">
          <mxGeometry x="458" y="808" width="60" height="30" as="geometry" />
        </mxCell>
        <mxCell id="ugX7uagLTzUMmo3rIZk3-183" style="edgeStyle=orthogonalEdgeStyle;rounded=0;orthogonalLoop=1;jettySize=auto;html=1;fontSize=21;" parent="1" source="ugX7uagLTzUMmo3rIZk3-174" target="ugX7uagLTzUMmo3rIZk3-156" edge="1">
          <mxGeometry relative="1" as="geometry">
            <Array as="points" />
          </mxGeometry>
        </mxCell>
        <mxCell id="ugX7uagLTzUMmo3rIZk3-184" value="Clone" style="edgeLabel;html=1;align=center;verticalAlign=middle;resizable=0;points=[];fontSize=21;" parent="ugX7uagLTzUMmo3rIZk3-183" vertex="1" connectable="0">
          <mxGeometry x="0.0307" y="-3" relative="1" as="geometry">
            <mxPoint x="4" y="-11" as="offset" />
          </mxGeometry>
        </mxCell>
        <mxCell id="ugX7uagLTzUMmo3rIZk3-174" value="IaC repo" style="rounded=0;whiteSpace=wrap;html=1;fontSize=21;" parent="1" vertex="1">
          <mxGeometry x="386" y="952" width="162" height="60" as="geometry" />
        </mxCell>
        <mxCell id="XLphR4ObF_bLcw9fqreV-1" value="Load balanced" style="text;html=1;strokeColor=none;fillColor=none;align=center;verticalAlign=middle;whiteSpace=wrap;rounded=0;" parent="1" vertex="1">
          <mxGeometry x="695" y="282.5" width="90" height="20" as="geometry" />
        </mxCell>
        <mxCell id="MTRoPPvNIup_bV3VBnc6-2" value="Alpine VM" style="text;html=1;strokeColor=none;fillColor=none;align=center;verticalAlign=middle;whiteSpace=wrap;rounded=0;fontSize=21;" parent="1" vertex="1">
          <mxGeometry x="130.17" y="272" width="115" height="30" as="geometry" />
        </mxCell>
        <mxCell id="MTRoPPvNIup_bV3VBnc6-4" value="Alpine VM" style="text;html=1;strokeColor=none;fillColor=none;align=center;verticalAlign=middle;whiteSpace=wrap;rounded=0;fontSize=21;" parent="1" vertex="1">
          <mxGeometry x="515.35" y="207" width="115" height="30" as="geometry" />
        </mxCell>
        <mxCell id="ugX7uagLTzUMmo3rIZk3-8" value="" style="shape=image;verticalLabelPosition=bottom;labelBackgroundColor=default;verticalAlign=top;aspect=fixed;imageAspect=0;image=https://seeklogo.com/images/V/vagrant-logo-B214F47636-seeklogo.com.png;" parent="1" vertex="1">
          <mxGeometry x="-152" y="192.14" width="50" height="51.72" as="geometry" />
        </mxCell>
        <mxCell id="ugX7uagLTzUMmo3rIZk3-61" value="" style="shape=image;imageAspect=0;aspect=fixed;verticalLabelPosition=bottom;verticalAlign=top;fontSize=12;image=https://upload.wikimedia.org/wikipedia/commons/thumb/1/11/Blue_question_mark_icon.svg/2048px-Blue_question_mark_icon.svg.png;" parent="1" vertex="1">
          <mxGeometry x="748.75" y="304.5" width="38.5" height="38.5" as="geometry" />
        </mxCell>
        <mxCell id="ugX7uagLTzUMmo3rIZk3-83" value="" style="shape=image;verticalLabelPosition=bottom;labelBackgroundColor=default;verticalAlign=top;aspect=fixed;imageAspect=0;image=https://seeklogo.com/images/V/vagrant-logo-B214F47636-seeklogo.com.png;" parent="1" vertex="1">
          <mxGeometry x="451" y="135.14" width="50" height="51.72" as="geometry" />
        </mxCell>
        <mxCell id="ugX7uagLTzUMmo3rIZk3-117" value="" style="shape=image;imageAspect=0;aspect=fixed;verticalLabelPosition=bottom;verticalAlign=top;fontSize=21;image=https://img.stackshare.io/service/25440/default_d5281eff522cc28f2c9de7a635e7acdb3e455cd8.png;" parent="1" vertex="1">
          <mxGeometry x="-230" y="825" width="60" height="60" as="geometry" />
        </mxCell>
        <mxCell id="ugX7uagLTzUMmo3rIZk3-125" value="" style="shape=image;imageAspect=0;aspect=fixed;verticalLabelPosition=bottom;verticalAlign=top;fontSize=12;image=https://upload.wikimedia.org/wikipedia/commons/thumb/1/11/Blue_question_mark_icon.svg/2048px-Blue_question_mark_icon.svg.png;" parent="1" vertex="1">
          <mxGeometry x="-212" y="1038.5" width="52" height="52" as="geometry" />
        </mxCell>
        <mxCell id="ugX7uagLTzUMmo3rIZk3-131" value="" style="shape=image;imageAspect=0;aspect=fixed;verticalLabelPosition=bottom;verticalAlign=top;fontSize=21;image=https://cdn-icons-png.flaticon.com/512/25/25231.png;" parent="1" vertex="1">
          <mxGeometry x="127.5" y="757.5" width="50" height="50" as="geometry" />
        </mxCell>
        <mxCell id="ugX7uagLTzUMmo3rIZk3-133" value="" style="shape=image;imageAspect=0;aspect=fixed;verticalLabelPosition=bottom;verticalAlign=top;fontSize=21;image=https://www.docker.com/wp-content/uploads/2022/03/Moby-logo.png;" parent="1" vertex="1">
          <mxGeometry x="121.5" y="1014" width="55.76" height="40" as="geometry" />
        </mxCell>
        <mxCell id="ugX7uagLTzUMmo3rIZk3-141" value="" style="shape=image;imageAspect=0;aspect=fixed;verticalLabelPosition=bottom;verticalAlign=top;fontSize=12;image=https://upload.wikimedia.org/wikipedia/commons/thumb/1/11/Blue_question_mark_icon.svg/2048px-Blue_question_mark_icon.svg.png;" parent="1" vertex="1">
          <mxGeometry x="131.5" y="1083.5" width="52" height="52" as="geometry" />
        </mxCell>
        <mxCell id="ugX7uagLTzUMmo3rIZk3-143" value="" style="shape=image;imageAspect=0;aspect=fixed;verticalLabelPosition=bottom;verticalAlign=top;fontSize=12;image=https://upload.wikimedia.org/wikipedia/commons/thumb/1/11/Blue_question_mark_icon.svg/2048px-Blue_question_mark_icon.svg.png;" parent="1" vertex="1">
          <mxGeometry x="131.5" y="1152.5" width="52" height="52" as="geometry" />
        </mxCell>
        <mxCell id="ugX7uagLTzUMmo3rIZk3-155" value="" style="shape=image;imageAspect=0;aspect=fixed;verticalLabelPosition=bottom;verticalAlign=top;fontSize=21;image=https://img.stackshare.io/service/25440/default_d5281eff522cc28f2c9de7a635e7acdb3e455cd8.png;" parent="1" vertex="1">
          <mxGeometry x="381" y="730" width="60" height="60" as="geometry" />
        </mxCell>
        <mxCell id="ugX7uagLTzUMmo3rIZk3-161" value="" style="shape=image;imageAspect=0;aspect=fixed;verticalLabelPosition=bottom;verticalAlign=top;fontSize=12;image=https://upload.wikimedia.org/wikipedia/commons/thumb/1/11/Blue_question_mark_icon.svg/2048px-Blue_question_mark_icon.svg.png;" parent="1" vertex="1">
          <mxGeometry x="399" y="1180.5" width="52" height="52" as="geometry" />
        </mxCell>
        <mxCell id="ugX7uagLTzUMmo3rIZk3-182" value="" style="shape=image;imageAspect=0;aspect=fixed;verticalLabelPosition=bottom;verticalAlign=top;fontSize=21;fillColor=default;image=data:image/png,iVBORw0KGgoAAAANSUhEUgAAAOoAAADXCAMAAAAjrj0PAAABC1BMVEX////iQyn8bSb8oybgMQn419PgQCn9pybiQCX8YQD9bSbpTyj8nADgLQDjRCnhOx3xXCfhPSD3ZSbhNBD8ah/+9PH8aybhNhX8ZhP2ZCb++fj0wbv0YCfrUij8ZhH8XgDpe23tmI776ef2zMfwpp3riX3wrKT7fUjydCf5nCb8oRzocmL64t/lWEPytq/1yMLtkofjSjLnalrkVT/mYE37m3j/7+j9p4b7jGL+2Mr3kibwaCf9uZ/+27T9yY3+4sP8q0DqgnXvSQD7dzz8wa79zb77k2r8ekH6glL8oH38sJX+4df2hib8vKj0iCf3lSf2iwD0iET+7Nj9wHj9tmH8sVH+3bn9vnL+0qI/tWgxAAALqElEQVR4nN2de0MTuRrG27QMzFB6o5S2lharK1jQXd3lIuguexBlV9FzXHX5/p/kzLSd6XRye5O8mYu/vzXkSZ558+SClkoqDCbHawOlv2GNweTR2o611o/3G1vVavXlmrWfAGbtaNvvytbRsZ3mH2816mWf1ta+nR8AZnC01SrPu/LERvuPt8ohu/s2fgCcZ42oK1vP8ZtfWyr1f8DP+D8AzsPteFfwP9j9Vqz9jRfo7SsQH/Ry40/s5nfiI+mPZYalaa260pVt7Gl9srvSfuMX5PYV+KWx0pVd7K/12cZK+1k6+EWiK7/hNn+88n1k6uA1qiu4i2vCNL6DH6K2r8BDqiu4H9N2ovnyRhm1fQXKG8m+bGM2/4CSmpmDKf/6Uh8gtv+yRbWflYMp//rx8CVe8xN6JDOrwS8o//oOm6A1/3iXbr5ctbSrEHNcZXRl9zFa+y3GSGK2rwBz1DfqWM0/Yo1keeNXrPZVeMYa9XL1EVLz+3RRmn0hGTiYijJzWvs4ze/QK01mDmb6t4yW+Z9wms/Cwb8y/YuW+XnNY9Z4IKxVbz7szzCaZ8STcCitHOyI4BkMqXD8RMeTcCiRt09yfuMZDCXzDzhFaTaUKTuY699yub5r3jwj6Uek7WC+f1EyP98z6TtY1BfzzM9ZsxdYOJkUsCPui+nXxNgzxUA/whLyXOBfhESzWxc1j7lTlMPYNcfYaJm1/jMz6S+ppuhgXkCN+mKW+Y+EA+nXvRQd/Fwi1SzzTySTWm4dIekAIBt2s8zP20gsSa8GD4T1N8BomWcd5CRGEvO0Togoy8wx2Wrxk35Eeg6W+tco8/8pXFQX05rS2whRFg9p/KTduvRLLafnYLl//czf0B13WXWfgXWsI4NzwIU07qJ0HWs+FQeDHKad3sRJ33wklYD4t6yd+amLRs5I7uOKYgPyr/ZNkjjpx0YSWRUTmMPKGxs6jT+QhcKQ7RRe9si2HRFamR+wZM/Bf05DA1nhZ+h8ToIjqwT1lvUaPGgBPyatbaU86S9bx7oc4sK+IGOikfnroEV1hn4eg8I/i6ZQv+JWGEd/JG3IiwNdDAKUH2kA17E5th2sNO6qHpOd45i1roqCf9Uzv/gcMgneBT0b+qmSCMWkyr6H51K1+ohpTcW/qpkfmPQj7D4kBYbxCKXMr9q43Wd4av5VzPwNheI+w+YzPMAJ1yoqmR+4OYxh8xme+NqIhcLiJ74cYWGzBqv6VyXzw5P+Ens1mPnUTtYbaOZXd4xNB+v0Bpz5mU8KJdh7xMR9SyTqDTDzKyXOCFvP8FSX+EVvYN+TUtKPaFh6hqewb473BpTK1ZJ+hK2n0PIbMhawzC96MSPCjoP1/Au849YpAwF2HpLq+Rf2zkg5hkWNo7xoTKK4xVoCyPxK2+AVqhae4UlfKHCRL/QD5aQfa3wNHZ38MEceVUEXjTytVXS0lfomk106vNT9NnKHLPPr1vY8Inl8o/9t5A9J5tcvSvlDnN/Ad3uFQLiHBl80FgJR5tdfsPPJLj/z6yb9vCLI/OoHVvmGn/m1k35u4W4swQ8OCgMv88MefBUKXuY3Sfp5hZP5YU8KiwX7ufLxfzbrjpN131BxnPrWKUPqWY+QbvOHkevL3Bt2yeg1Q6rnkRnt5mbh1TrOZrM9U9O5ppW+cklEt9BqnfLmcKnFpZfWwL9LvG6zXkix/nwO40JI729K6rVHErSLN7VOvdlNqOgcJJVOxkmlMyMXaWr9Ce1T80XIOHnu8nbEkOozLIpYx9lLTuic0U1C6rsOWyrx+psFEOuUm4wJndH7KyG1x/uTRRDrC+X2nniJ5ebU5f9ZknMbO45AqI+7ehbxSiyVkPwWKN43upT6YUXqHacqxdjLpVZnsy3r+OitIECwaefvk3XqQ3m/EyHilleAV2jmTKuzxy+mSzrvVqQegKSSbp4m1qm3IUqTeYmA/pJfufMzsc4erMuk8z6udAD4VBd081KKh8DZ8WcxvtrsyNaaOHkoxc6mZIWJM9rRleoNM9cqCQ0J3BWprH0Nn4xN7Ncjpe662rMakKWJnU3FzppJzdDEauY1l5qZiVXNS0uVR2CaLEysbN6AlQpcuoQuUjEyiBMOdwMu6ifRCYYJ2umaWMe8hAqGsLhPk2Ym1jJvIPV2RSpkE8ckPRNrmXcmdfVw6bVOXZqRkok1zRvQW722kR648PHSMLGzqTmlhDodnehLTaMSa5s3IHlrYyDVN7FlofrmnUldVVo61yzBC2yaWLfyLkgUYNCRoQiLJjYyL2FcxX0wcjCxV4nrfcOOua8SUksds7EjdkxsaN6AEfXQ8MTsYyVWTKy+YaPonCeVlm5MHUwsmNjUvIQ62w8YjIwdTHBNbBIblriMF/zmDiaoJkYwL2H6F6EGz2ljvf5HMK+Pm7wzn3GNMa0Ex8RK57wCvA5LKfc5hHLz5ibGMS9hPuWZYb60Luibmpj1UkULl/XE0OdvpGklZiZ26jjmJdR9YwwXazBNTAy+YQMw5kyqyVkETV9XqWG6j8OfVPg1KwSt0wnDrWkC3pcagJEOIzRMjGlev/ye8ZXqH5KyUc3EmOYN1lThP5ggeaqljIqJcc3LC0pL7nC1KpgYYWu6Qo+Vfi1aGG5itIC0QGLfgB3Bw0o9ICbGNq+/pFLnLDSv1B4LyAGYGNu8/o5cWH1DXiOXJrmJsc3LOBHlcIIYmhaITIxvXtKRf6gLznXv5fjwTYxvXuL1BDEpwS2+Vp6J8c1LvMQLYDEH+FqZbycsmNdXCii+8XnF/14ZD4AsmFdZaan0Dr0O0w+AcDPvHHWlpdIZ9voaEDexDfOSTk/lOw15O0bOiAFDq+YlHQKvvXE+EAvFKVxiLVRefzNzq/tfAAzOLXywiyXWhnld+n4GzmvXgon9JdaGeXvXeuYNsWFibwj6TQrFRt0TI6ElGybuHlYO8VOv7MwBxB3e8XBA++N6Zf0T+JcMYIzem5k35IOHZ+Ju+/N6pVJZf9pHO8L3zTtO/uKmPmjRyTdvoDQQi2fiDvXbuCbcocQJLzBvyPonpEuokWHlTYJRibvti6XSwMSXCCb2XNDRihLGJu5ePo0rDTA3Ma55Q8wysdc+TAqtmFfi0QGueUOOr/VN7PU/0UpNTWzDvCHaJvbNyxBqWIlxYgOPt3qZmGVe40o8OrD7P/pOLtVN7A2Z5o20ftaJE97YnnlDTlRN3O1TlTehtXKpbOJOT/1cRR1FE7cPhTrnYj8Cfj0+zug2nf+OeqJSiYcfxVMamnioYGJvzHmOZAGwibvDzxClAfBVp9NJw7whN7A40b4E6lQxcVrmDZlcA87EYeaNtF5ATOy56Zk35GQsWQ695oWKUpiJ0zVvyI24Ere5AUkwsR8lccJN2bwhk/cCEw8FAUmg9UIUJ9KsvEn+4h07aZg3hG/ibMwbcjNimrg7VDdvNLGHnPfd7nkq/4M6l1NWJe5rmTfSesHaxHbGrH9SM13Okib2msJ0D4E2cY/o3LBhk6jEvnlNldImztq8IacHMRObmTfSumLijpu9eUPOojjRVApIAmInMfkwb8jCxN0mON1LiUycF/OG7AQm7l9W0JSGJzEd9y5rbRRnYzTzhjztd/Jl3pCb/yIrrVSm/8O7d0Llvoat9MrOgTYCXypTTKW1f7IWJGDwFW9ip7U3WcsR8zuW1mnlS9ZaZHyZopi49jVrIQB2viFMbO0+axkwjE1cAPOG/GFm4trXfCVBITtXBhNb+z3r7qvxj67W6fSPrPuuyvealolr37I5/TTi9EpDa9HMG/KvqomntcKZN+SNmolrVwU0b4hS/i+qeUPA+X9a+551X00BbmJzvDWFA8r/ud6awpFvYnO/NYUjyf/Tq8KkeznC/F/7N+vuoSLYxBZlawqHY+ICbU3hME1ciHMVdU7pTeyPZ96QxCZ2Ov0BzRuysomtfSvQuYo6SxNPi57u5dxXatPptFb79gObN+LLm/v77xmE+/8DKU9nJEngm3UAAAAASUVORK5CYII=;" parent="1" vertex="1">
          <mxGeometry x="386.5799999999999" y="798" width="54.42" height="50" as="geometry" />
        </mxCell>
        <mxCell id="E3hp2NVlANM56iqE5sIz-2" value="" style="shape=image;verticalLabelPosition=bottom;labelBackgroundColor=default;verticalAlign=top;aspect=fixed;imageAspect=0;image=data:image/png,iVBORw0KGgoAAAANSUhEUgAAAJIAAAB+CAYAAADP/Uh3AAABhWlDQ1BJQ0MgcHJvZmlsZQAAKJF9kT1Iw0AcxV9TS6VUFKwi4pChOlkQFXHUKhShQqgVWnUwufRDaNKQtLg4Cq4FBz8Wqw4uzro6uAqC4AeIo5OToouU+L+k0CLGg+N+vLv3uHsHCPUS06yOMUDTK2YqERcz2RUx+IoQ+tGDAPpkZhmzkpSE5/i6h4+vdzGe5X3uz9Gl5iwG+ETiGWaYFeJ14qnNisF5nzjCirJKfE48atIFiR+5rrj8xrngsMAzI2Y6NUccIRYLbay0MSuaGvEkcVTVdMoXMi6rnLc4a6Uqa96TvzCc05eXuE5zCAksYBESRCioYgMlVBCjVSfFQor24x7+QccvkUsh1wYYOeZRhgbZ8YP/we9urfzEuJsUjgOBF9v+GAaCu0CjZtvfx7bdOAH8z8CV3vKX68D0J+m1lhY9Arq3gYvrlqbsAZc7wMCTIZuyI/lpCvk88H5G35QFem+B0KrbW3Mfpw9AmrpK3gAHh8BIgbLXPN7d2d7bv2ea/f0AKG1yiU9TKcwAAAAGYktHRACpAP8A3luHjaYAAAAJcEhZcwAALiMAAC4jAXilP3YAAAAHdElNRQfmChYQBjhRdf61AAAAGXRFWHRDb21tZW50AENyZWF0ZWQgd2l0aCBHSU1QV4EOFwAAHZRJREFUeNrtnXd8VFX2wL/3vSlJJkBIICGBQIBIEwIpAipFqkBAioArVcDCYkFB1123GHZ/67IK4oKyqAjqWlawoWCnCSIivQcJhCQEQkIgkDblvfv7YyaIKyVhKjDnw/zBZzLnte87555zzz1XEGDS6y+vyXX7czEpOkIIgvKzSCmx6QrdWsXzzV8nBdTNUQLpZBZ+vUmuzczFKHSCDP1ahACj0Fmdmcuir3+UQZAuIMeKS+TLK7ehSM0FUZCkC6CEEKBKjfkrt3KsuEQGQfofeeXrLWzNysMogghdGiUwCtiWlccrX28JWqTzZcfhfDnv8x8wKgJFCIJ+7dL+TRECoyKY9/kP7DicL4MguSTjvZUUnSnDIAhCVE2YDAKKzpSR8d7KoEUC2HwoT3606QDhJiUISA0l3KTw0aZMNh/Kk9c9SBPnfohBFa4XLWiNqm+UnPfKoCpMnPvh9W2RZi9bKw8UlmBWZBCiK4TJrEgOFJYwe9laeV2ClF1wUr6+ZieazRqEyE2YNJuV19fsJLvgpLzuQHrl663syinArCrBcN/NdIBZVdiVU8ArX2+9vizStsP58rll6wkzuiAKWiS3IjgBhBkVnlu2nm1+Sgf4BaRpi1egIZ0HD0LkEZgUQEMybfGK68Mifb5ln1y9N5dQNZjB9rSLC1Vh9d5cPt+yT17TIJWUVSx58q1vMAoZdGlecnFGIfn9W99QUlax5JoFae6KDSMyj53CpARzRt6K4EwK7Dt2irkrNoy4JkHKzDshX1+zA6k5nPNpQfHOAxUCNAevr91J5tET8poD6cUvfiCr4BQmNfiwvS0mFbIKinnxi03XlkXa9FOOnPfhOizBcN9nYyWLQWHeB9+y6accec2ANHXhCoy1QhHIIEQ+g0lirBXK1IW+SQd4HaQ3Vv4oN2efwIQeDPd9nA4wobM5+wRvrPR+Wa5XQcorOi3/9eUWhG53RmlBa+RbqyQEQrfzry+3kFd0Wl61IM3//Ae2Zx3FpCpBhvzDEiZVYXvWUeZ//sPVaZH2HDkuF67ehskgXC4tSJI/HJwATAbBwtXb2HPkuLzqQPrLeyspLCl3ls8Gxa9iEFBYUu7VslyvgPTt7kPygzXbsZjEzzY2KP7zb4DFJFi6Zjvf7j4krxqQpr/5BabwUJDBysfAYEmAlBjDQ5n+5hdXh0Wau2K93JVX5JyYDUIUUDCZhGRXXhFzV6yXAQ1SdsFJuXD1TnS7PQhRgMKk2+0sXO35slyPgjTr0w3sPJiLSRVBkALVKqmCnQdzmfXphsC0SDuzj8nFK7cSZjYFA/2ATghAmNnE4lVb2Xn4mAw4kB5dtJwKh4YiAnc+TUp57nM9R3GKkFTYNB5b9GlgWaT3N+ySq/YdJVQJ3AckpUSXYNNBc/3/epZQVbJyfz4fbNglAwKk4jNlcsaSNZjQnHM7gWiNpESTEpPJxLCOLalXJxy7fv3CVPWcTGjMWLqGk2fKpN9BWvDVJn46XowxUMtnpUQXggq75HdDuvDu9FEsuHcQNgk6ynUNk1GBA8eKefmrTf61SDmFp+Rrq7aha47AhQhB2alynh7RnT8M6w7AgLRWvHzfQMqtDhzSy5ZJSucnUNMBmoPXVm0jp/CUWyfpVuFrQVxKxrd7sgk1KoEHkpTYJTgQPDuhH08N7/GLr1ObN6RVw3p8ufMwNocDBS9YVCmRrgGukIEXhAghUAUUnC6joKSUXV++P8PnFmnTT7nynXW7sJjVgAv3pZRoEqRQ+PvdPZk+uOsF/+43XZJ4bkxvVIMR3QuWSeIEucryBaJlEoDFrPLOul1s+ilX+twi7QlvmZFfUuZs1Rcob5rLAkigvNTG7En9mDao6yV/ktKsIRFhJpZt2IfRZAA8MLUjJRJJpabQrnE0D/fvyMaDx7A5NJSq1oaBcs9c56EJhd1HjpG7fvkMn1mk177eJDfnFBIiAqh81gWRJqHMqjH7/gFMTb+1Wj+d0q8zz07oR5lDoknhnmVynUelptCgjoVPnxrD7+/swSsPDKRSlzh0J+iBZJ0EECJ0NucU8trXm6RPQMouKJazlm9EWisDqt+jBBwSVIORl+4byLQ7utbo908M7cbssX1QVNXpFq/kQZ+DCFrFRfHjs5OJrVsbgBG3JvHWw0Mxmk3Y9ABzca6+lNJayazlG8kuKK7xCdbYtdVJ65uxbHOmcz4tUEy0KzrThcKssX2Z0r/zFam5uWVjDAI+35aF0ajUeIAskVTqCh0SGvD2o8NpGhP5i++TmsTSoI6FNXtzqLQ7UAOsZ6aiKBSWVlIrxMTa99+c4TWLlH2iSM7/ciMqeoB0EnFOd2gIyk+VM//e9CuGqEp+N6w7Twy5lbJT5c51L9WxTFIipU65Jmharw5vTx1Om/iYC/7phJ6pzBrXFzsK9qrpmkBwc66OJio687/cSPaJIuk1i7Q7rHXG3qMnMSuBMGCUSOl0ZzoKrzw0lIm90zyiuU/7RByqZNXubFRFXPqlcbkzq64QHxlO1r+nE1Xbckn9yU3jSE2I4a3v9iIgoAbgioAzVp1d2Sc4tHbZDI9bpLW7D8lvNu8nTA2Mi3ZCJAgxm/j3fekeg6hK/u/uvjw5pIsrA36RwXHVmEgXtG8Sw8oZk6qtf+BNrVk4eRBhoSGBM2aqatqlwjeb97O2BmW51bZImXVaZxSUVmDwd7jveng6YNMlLz8wiPE9Ur1yqN5JiZwtr2Tt9kOYTIZfrBR2DsYlFZogqXE0bz0ynBZx9WqkP7lpHPVrhbFy9xFnUjQQLJMQTmtvNLA37wR51UwHVMsivbR8g9x+pABTVV8jP0PkkILyCjtvPjSMsd1TvHrI58b35zc9kymttJ+zTFUQlWuChHp1+PQPo2kdH31F+if2SmXehH7YUXDoekCkBgRgEpLtRwp4afkG6RGQ9uQWyBe+2ozDZvd7uC8Buy4IDTXz/u9HMapbB58c993HRvLggJuxSgXNBZJVV2gdG8XB+dNoGBXhlv5xPVJY8uhwhMHsdHPCzzC50gEOm50XvtrM3tyCy57MZV1bSFLPjBVbMv3eOFRKiUMKLGFmXpo4gJG3Jvn0+ANSW3C0qIQfso4jFEHnFo15+9HhRNWyeER/m/hoGkSEsXZfLhU2R0Bsp6EqguOnyzAbBN8ve2fG5azYRWVfboFMfvwlhBAY/NVJ5FzGWlBRaWXZU+O4o2Nrv93cIf98m3UHj7P+z6Np3biBx/UvWrWFhxZ+jnTYMKjCv1uOSYkDZ6Z/26yHaB0fLa7IIm0zJ2bknCr9eWzka5BcENmlABQ+enI0g/wIETgner/eup9NWfmMuLmtx/UnN42jTVwk//1hP0gdRfgXJgFYpWDLwbxLzsNddIz03rodcsNPRwlR/Nc41AkRRNYO473pIxh4U6uAiJK/yZjIybPlpD/zplf0D725LYt+O4gQcyg2Tbom5/yXDghRJBt+Osp763bIGoF08kypnL18IybFf9MgVWOi8JAQXr5/EHfc5L4lyik8zbTFKzh6ssRtXcueHB1rtWsMnvm2V65/3G0pzLmnL5awMOcA3F+DbxdMJkUwe/lGTp4pldUGafHqrWzPzseoSN8z5IqKHFJQWW7j/ekjGZTmGXc2du77zPlsM4Nm/sdtXZYQ07Fvnp7AkaLTDPqHd2Ca0DOVWWN6O6dT9J/TDv5ILRkVyfbsfBav3lo9i7Qr+5h8fvlGhJSu7rPCtxABNgkRljDWzbyP29o1d1ttYUkpzR+cw7f7crAoDrZlnyDl8fkUlpS6rXv7rAcps1bSK+N1zpRXLvX0LZnYO41PnrgLTTG6YMIPMDnTAUJKnl++kV3Zv14P9yuQnvtkPflFpzEpvt9c1gmRoEFEbV5/cDBd2jR1W+e+vAIGzXybI0UlhBtAUVXCVdiVV8ioF5aSW3Ta7WOsyphEiFFl8LPveKW3dXpaa/49qT+W0FBsGv4ZMwmne8svOs1zn6y/tEXacfiYfHPdTixmo+tshe8skZTYdYHJoPLmQ0O5PaWl22ozj55gzNwP2Xr4GKHn7QknhMCMzpp9OYyd+wGlFdYB7h5rxR/HYjYY6PO3N7xyiyb1TuO5MX0xmc3YNN0Pbs45dWIxG3lz3U52/M8q3V+A9MCCjzEIxbfdZ6tmz6XAYDCy8ul76N62mfsD6xPFdH16EbuPFGD+3/SFECgCzOisz8yl658WfuaJS/niT+OotDnoNeP1c3Cu2XOIkbPfpehMmQfcXCqv3DsAaTBj13XfuzlXt1yDUHhgwccXtkgvrlgvtx4pxCx0n07KSiQ2XdC4fgTfPD2WjjfEu61z04Ec0p58mVNnKzAp+oUjTxdMoUJne84Jbv7DK+R5wM2t+9skLCEmRj6/5LO1e7IY8s93WfrtHgbPfJvSSvct393dO/DmlDswmkL8khoQQmAWOluPFPLiee1xFIDcwlPy1VU7kJrNtxBJiVUXxNeLYPFvB9O5RWO3dX679zCj537A6fJKQhQQQrm4dRUCoQjCVdh8+DjjX/zQIzB98uQoahlVev3tHSqtVsLDVDbsPcJv5iz57HRpudv67+qSxL8m9CPcEuaCSfocJqnZeHXVDnJd6+FUgKiOt2e8t2E3oaqP5tNcqyysUgFFYdVfxnOTByzRjsP5jJyzlLyTZ2pQfOfMk6hCcqjoDOv3HuFeD9Q2jbi1HZn5RWw/kIfRpGI2CvYeLWb/0ZMMSmsRazIYHndHf3LTOKIsZlbsOIzUXKtTfJQBFzjn4Y6eLiXSEsKqpW/MEEdOnJJtH5uHXXNg9BlEYNWhQd3afPmnsbRuFO222t05BXSY9hKqQbmyKR3XgL9MEyQ1imb1X++hrgcmZCcv+JhXV28nRJEoUlJqk3Rrl8BHj/+GSA/o/+THfdz5/FJU3YFR8eF0ipTYAaNqYPech1GL4lIzNh/KJ8RHzbEkEquu0iKuHu9OHU77prHuj0v2HObOWf+l1Gp15r+UK9j+/bz9zvLPlPNdZg492yUQYQl169wGprXibHkl3x88hoLEbBD8lF/Md5m5TOzlfkFey4b1iY8MZ9XeHCp9WTXgqvEutTkoKilDTeo3ImNnToH3u6ydt2iwcf06vPfoCFISG7qtdsO+bCbMX0Ze0WmMJhMDUhLRpeTk2XIUpYZvpwsmVZFkF51lS1Y+/TokEh5qdusc+3ZIpLyyktU7szEaFcwGhazjp9iWfYzb2ycSaja6pT+5aRzRtcJYvS8Hq93u00pLmy5JahyD8vfRfagVYsLhetjehsgSamJVxng6NItzW+2enALuePZdsguKcThgVJcbeXXyECJqh6NdaZpFCBQEZkXyXWYevTIWe+QW/GPM7TyY3omyMmelZbhZ4dMfDzB23gecLa98yu3UQK9UXhjfF6kanakBbz5Pl24HUCvExN9H90FpEl1XPDmkCzZNeufg5w2s28RHs/2fv6VJ/Ui31X6feYTUJ//N6dJKhEFl9G1JLPztUMqsNiqsDo+Y7RChsTe/mA7TX/JINPfifYPIGNMbh66g6QKLQfLZj/vp89c3njl51v1obnyPFJY8eieoZud0Cl7KM1VNZWmSJ4d0oUl0XaEAjL8tmXaNG2DVdI8ftmrRYNsmsfznkaEkNKjrts7Vu7IY9a/30RwS1aAy4bZk3po6HADdU7lUIRCKQrgq2XO0iDFzPyC7oNhttU+P7Mkfh3fDpkukUAgPMfBDZi4j5yzhdFmF2/oHd2zDSxP7ER5m8VqeSQJWTadd4waMvy355zxSfP264r6e7RGqyXMdOaRE6s5Fg7F1w1n62HCSmrg/sN6YmcPEl5aRV3gaBzC6aztefuAO7ybg0PnuQB53/+t9Sisq3U4q/mVED/7v7l6UlZQjhSA8RGXVzkOMffEDj8A0qXcaz4/ri9kcglXXPb4IU0qJUE3c17M98fXrinMgATyU3kWkNKmPVXqgi5mU6FJSKRWaxUTy48zJNG8Q5X6eKPsYtz39GkeLS3CgMqFHEoumDPV+dCLAjMaPWfmk/G7BZ2WVlW6/Eb8f1p2/T+pPuV1Hk5JwAyz/MZOhz73rkaqEcT2SWfLona4MuOfGTFI6hykpTerzUHqXc7b/F3NtL08egkPqyOouVb7EwWwopDVvyFd/GktMRLjbF7B2dxa9ZryOQwehqkzs0Z5FU+70VSoXRQhChU5WwWl6PL342KET7ru5p+7swZzxt6OoRjQpCDcqrNmRRfozb1FSVnHQXf39Uluy5NE7qWUJx6rJ8xyTO2MjgUPqvDx5yC+++gVI7ZvGinFdkyiz2qma7a35sXTKNEFKszj+8/CwXzVSuBJZtfMg98z/mJLSCoSiMKFHMq952xJdcMwkCFOc673uefFDj5SgTB14K8+O6Y1Vly43Z+DHzFzuen5pYtEZ9y3TgNRWvDp5IFF1wql0uMORsxqkzGpnXNck2jeNFRcFCeCJO7oQV6+uq7yz5mOiMocgpk44X/xxDImx7ruzbVlHGTXvQ/IKS3BoMOrWG1lw/yD8I87MsUnobMw8ypBn3/WI1in9b2bepAGUlZSj4RwzfbUzi7HzPuJshfupgaGdbuTVBwahGg1XPmaSzpxRXL26PHFHl199/SuQ2iXEimnpHZFCoFe35kVKdCRWVG5uEc/BeY/ERljC3L7Bmw7kkPL4AopLSkFRmdQ7mTceHo5fpSrPJDS2HjpG26nzOF3q/gB5Sr/OvPXk3RiNBhxSwaJKvtiyn65/XvRMfrH7NeYD01qz9dn7MZrMWGuc6nGOeaUQTEvvSLuEWHFZkMBZK9whIQ67LqrX1QVnR5C+Sc34+InfYAk1H3P3wr/ZcZBhs5Y4JzxNBh5L78RCX7uzy6UGDLD/+ElGzlnCsVNn3FY7ulsyiyYPIbpuLTQJ4SEGdhzOZ/A/3+WkB+qZWjeK4cs/jCYxLgqHXiNng10XdEiIY0LPC0/rXBCkqNrhYvrAzs5cR7XJFYSZDCgG9zcTWLvnEPe+/AmFJWcxCR2DohLh5jSFt1IDIUJnzZ7DTJq/zCM6G0dHYDEpSCEQEsJNKpt/OspdL7zPcQ/A2jAqgphaYejV7YBSlXzUJdMHdiaqdri48NO/hNzy+wXyh0OuMlXXm3ixKA3AIQzUDQ/hiYE389gF/Gj13FkuPTNex65rmIQ890ZoBgPNomrzxkPDSLtEyUn2iVMMf34Juw4dxawKn1QzVKU6Oic2ZP3f77ty9/bKp7y7YRc2mw1F/tywQwLldp3OrRJ4f9oIYiNrX5H+BV9uYtobn6EIFaE7Ll8p4IKoQhd0ahbLhpmTxcXNyCWkJku2qwZwDgSVFXZuvbEJU9NvoWubJjSoW70LX7XrEIP+8R80XTo3DnTBW7URjU13duy4u0s7HuiTSrcbf12Se8QF0k5fgVR1w6Wk1A4DUm7gv4+NeKpWWMgz1flp1vEivth2kGc+WEt+cSmhJgX1fyddXdNMpVbJjU1i+PypMcTXr17jimPFZ/hq+0HmLP+OHUcKCTUIVKWatUs1WLJ92bs8bfFn8vnl3xNurOZiyXMNOZ3gJTdtyJCbEunWphltGkUTWevXg/ADRwv5ZHMmc5Z/z8mzZRfdfVK68hhlNgfhYWZ6t2vOoNQbSGkaR4dmzkqCU6UVDHjmLbYezPUdSC7RdR07BnrdmMDD6Z3of5EFDMdPn2FfXiEfbdzD17uOsD/vBCFGFcMl66icS5FKbTqpiQ3587CudG3T9IL38+TZcvblnmDtnsMs2/YTmw/kYlCVmnXacz3HUrtk+sBOzJ4wUFx6YHMZ2ZNbIIc89x7Z+ScIMSjVfDDOi5YIbA4NoSrUrxtBfYuJ+AgL8fUiiLCEcrzkLEeLz3DwxFmOnz6Lw2bHqF7mbTmv0ZbVrhESGkr92uHE1DJyQ4MoLGYTX2w/SGHJWVRft+Fx7cBk1yGiTjiN64TRrkk0jaIisJiN5J86S3ZhMYeKSikqtVJ48hQGVcGoOHN2opovqVWT1LJYaBwVTmJMXVrERlIrNISTZ8vIP3mGHbmFnLZqFJ4qQeo6JlX8PBiu7v2QkkqHTkJcNMueuIs28THugQTORluPv/MNilbDHknnNVDXdR1dCrRzKzkUpK6jIFEFTnNeg4YJVeMyKSWaDroQ6NLZmdUgJAp+2lO3CnTdWWahyZ9fPuG6G6rUUQSozoKpmtUOVemXrp7dQkEXgFQQ6O7rP2/cp6tGZo3qzYMDb7nsj6ut/eY/LJCbs/Kd5rGmD6hqT47LR9XUrExUVv27YETlN6nu9db0Af+Pxb9Q5tkT+p2LMiCteRzf/2NytRRUO1afObov9jKr8/RqmhV17Q92uU/Na43FRXX7Pc9Uneu94vO8kD7FM/qlE0h7mZWZo/tW+2fVBql722aid1oryrXA2wIhKJ61pOUa9E5rRfe2zYTHQQJY+OAgosJNzp1+gnJNikNCVLiJhQ/WbD6zRiAlRNcTU27vjIZy8d7TQblqrZEOaChMub0zCdH1hNdAApjQI5nEBpHYHFrw5l9jYnNoJDaIZEKP5Br/tsYgJcREiscHdkaYQ5zVAUGrdG1YIykR5hAeH9iZhJhI4XWQACb16SjS4utTqSsEMboGOAIqdYW0+PpM6tPxikLJK56qf+HedDRNC0Zw10ikpmkaL9ybfsVqrhikjonxYlTXdpRZtaBVusqtUZlVY1TXdnRMjBc+Bwlg5pi+NI+Nci6uDFqlq9AYSWyapHlsFDPH9HVLl1sgNa5fV0zqmYyiGoIgXaUgKaqBST2Taexan+YXkAAm9+3IDQ0isesEYbrKILLr0CI2ksl9O7qtz22QImtbxNMjb8OGeq4ALSiBD5Fz7aHK0yNuI7K2RfgdJIDht7QTPVs3pEIXwad0lUiFJujVKo47b2nnkYemeOrEXpg4kFCDii5FMB0Q4OG+LgWhJpU5Ez23PtBjICUlxIoJvVIot9qC6YAAD/fLrTYm9EwhqWmsCDiQAB4fdAtJifHBdECAh/tJifE8PugWj+r2KEgJMVHi3h5JKEZjEKRADfeNRu7tkURCTJQIWJAAHknvIto1qodNiiBMgWaNpKBdo3o8cl47moAFCWD2uH7YSyvOrUkLiv8hQgjspRXMHtfPK8fwCkjd2jYTd3bvQJldnosUguK/KA2gzC4Z3r0D3WpQPut3kABm3NWT6NphwbLcABCHhOjaYWTc1dNrx/AaSG0TYsWkHsnYHP7arC4oVcuWbA7JpB7JtE2IFVcdSABT+neiQ/OG2M5tCRUUX3s1m67ToXlDpvTv5NVjeRWkRvUixNTbU5GK0eOdVYNyeYqklEjFyNTbU2lUL0JctSABjO91k0hLiMZGsCzXt04NZ0PYhBjG97rJ65Ogii8u6oVJ6djPVrjdLTcoNbBGCOxnKnhhUn+fHNInIHVq0Vg8PKwbZXY9WOPtE4igzKHz8PBudGrRRFwzIAE81K8jzWPqOneJDopXxaZB85hIHurX0WfH9BlILRtFi3tua49QDa5uuUHxhuhSgmrgnu5JtGwYLa45kAAeSb9lacvYutiCZble8moSmw6tY+vySPotS315bJ+CVMcSOvKfY3pjlyI4VvLS2MguBTPH9KaOJXTkNQsSQP/U1qJHm3gqtGCu29PhfoUGPdrE0z+1tc9rnhV/XPTzE9JRXY3qglbJM9ZIB1QEz09I98sp+AWk5KZx4onBXSi3BdMBnnJp5TadJwZ3IblpnLhuQAK4v08K7RJivLJr5fXm0qyaTruEGO7vk+K38/AbSAkxUeKe7kmoRnMwgnMzUlONZu7p7vny2asCJIDpg7uLFtF1sOrBSsorhciqC1pE12H64O5+XVSo+PtmLHpkGA7Xtk9BmGoGkQQcms6iR4b5/Xz8DlJas0ZiaMcWlNn0IB01lDKbztCOLUlr1khc9yABZNzVi3q1Lc6y3KBVqlak5pBQr7aFjLt6BcQpBQRI7ZvGiYf7d8Kuy2BfympApEuJXZc83L8T7f0U7gckSM50QCopzRthl8GM9+XCfbuE5OaNuL9PasCcV8CAFBtZRzzQKxldqMHFApfASErQhMqUXinERtYRQZAuIPf26Si6t4zHLpWgd7uwV8MuFXq0jGdin5sCqofQ/wOvrcflkh471QAAAABJRU5ErkJggg==;" parent="1" vertex="1">
          <mxGeometry x="-138.49" y="266" width="48.66" height="42" as="geometry" />
        </mxCell>
        <mxCell id="E3hp2NVlANM56iqE5sIz-3" value="" style="shape=image;verticalLabelPosition=bottom;labelBackgroundColor=default;verticalAlign=top;aspect=fixed;imageAspect=0;image=data:image/png,iVBORw0KGgoAAAANSUhEUgAAAJIAAAB+CAYAAADP/Uh3AAABhWlDQ1BJQ0MgcHJvZmlsZQAAKJF9kT1Iw0AcxV9TS6VUFKwi4pChOlkQFXHUKhShQqgVWnUwufRDaNKQtLg4Cq4FBz8Wqw4uzro6uAqC4AeIo5OToouU+L+k0CLGg+N+vLv3uHsHCPUS06yOMUDTK2YqERcz2RUx+IoQ+tGDAPpkZhmzkpSE5/i6h4+vdzGe5X3uz9Gl5iwG+ETiGWaYFeJ14qnNisF5nzjCirJKfE48atIFiR+5rrj8xrngsMAzI2Y6NUccIRYLbay0MSuaGvEkcVTVdMoXMi6rnLc4a6Uqa96TvzCc05eXuE5zCAksYBESRCioYgMlVBCjVSfFQor24x7+QccvkUsh1wYYOeZRhgbZ8YP/we9urfzEuJsUjgOBF9v+GAaCu0CjZtvfx7bdOAH8z8CV3vKX68D0J+m1lhY9Arq3gYvrlqbsAZc7wMCTIZuyI/lpCvk88H5G35QFem+B0KrbW3Mfpw9AmrpK3gAHh8BIgbLXPN7d2d7bv2ea/f0AKG1yiU9TKcwAAAAGYktHRACpAP8A3luHjaYAAAAJcEhZcwAALiMAAC4jAXilP3YAAAAHdElNRQfmChYQBjhRdf61AAAAGXRFWHRDb21tZW50AENyZWF0ZWQgd2l0aCBHSU1QV4EOFwAAHZRJREFUeNrtnXd8VFX2wL/3vSlJJkBIICGBQIBIEwIpAipFqkBAioArVcDCYkFB1123GHZ/67IK4oKyqAjqWlawoWCnCSIivQcJhCQEQkIgkDblvfv7YyaIKyVhKjDnw/zBZzLnte87555zzz1XEGDS6y+vyXX7czEpOkIIgvKzSCmx6QrdWsXzzV8nBdTNUQLpZBZ+vUmuzczFKHSCDP1ahACj0Fmdmcuir3+UQZAuIMeKS+TLK7ehSM0FUZCkC6CEEKBKjfkrt3KsuEQGQfofeeXrLWzNysMogghdGiUwCtiWlccrX28JWqTzZcfhfDnv8x8wKgJFCIJ+7dL+TRECoyKY9/kP7DicL4MguSTjvZUUnSnDIAhCVE2YDAKKzpSR8d7KoEUC2HwoT3606QDhJiUISA0l3KTw0aZMNh/Kk9c9SBPnfohBFa4XLWiNqm+UnPfKoCpMnPvh9W2RZi9bKw8UlmBWZBCiK4TJrEgOFJYwe9laeV2ClF1wUr6+ZieazRqEyE2YNJuV19fsJLvgpLzuQHrl663syinArCrBcN/NdIBZVdiVU8ArX2+9vizStsP58rll6wkzuiAKWiS3IjgBhBkVnlu2nm1+Sgf4BaRpi1egIZ0HD0LkEZgUQEMybfGK68Mifb5ln1y9N5dQNZjB9rSLC1Vh9d5cPt+yT17TIJWUVSx58q1vMAoZdGlecnFGIfn9W99QUlax5JoFae6KDSMyj53CpARzRt6K4EwK7Dt2irkrNoy4JkHKzDshX1+zA6k5nPNpQfHOAxUCNAevr91J5tET8poD6cUvfiCr4BQmNfiwvS0mFbIKinnxi03XlkXa9FOOnPfhOizBcN9nYyWLQWHeB9+y6accec2ANHXhCoy1QhHIIEQ+g0lirBXK1IW+SQd4HaQ3Vv4oN2efwIQeDPd9nA4wobM5+wRvrPR+Wa5XQcorOi3/9eUWhG53RmlBa+RbqyQEQrfzry+3kFd0Wl61IM3//Ae2Zx3FpCpBhvzDEiZVYXvWUeZ//sPVaZH2HDkuF67ehskgXC4tSJI/HJwATAbBwtXb2HPkuLzqQPrLeyspLCl3ls8Gxa9iEFBYUu7VslyvgPTt7kPygzXbsZjEzzY2KP7zb4DFJFi6Zjvf7j4krxqQpr/5BabwUJDBysfAYEmAlBjDQ5n+5hdXh0Wau2K93JVX5JyYDUIUUDCZhGRXXhFzV6yXAQ1SdsFJuXD1TnS7PQhRgMKk2+0sXO35slyPgjTr0w3sPJiLSRVBkALVKqmCnQdzmfXphsC0SDuzj8nFK7cSZjYFA/2ATghAmNnE4lVb2Xn4mAw4kB5dtJwKh4YiAnc+TUp57nM9R3GKkFTYNB5b9GlgWaT3N+ySq/YdJVQJ3AckpUSXYNNBc/3/epZQVbJyfz4fbNglAwKk4jNlcsaSNZjQnHM7gWiNpESTEpPJxLCOLalXJxy7fv3CVPWcTGjMWLqGk2fKpN9BWvDVJn46XowxUMtnpUQXggq75HdDuvDu9FEsuHcQNgk6ynUNk1GBA8eKefmrTf61SDmFp+Rrq7aha47AhQhB2alynh7RnT8M6w7AgLRWvHzfQMqtDhzSy5ZJSucnUNMBmoPXVm0jp/CUWyfpVuFrQVxKxrd7sgk1KoEHkpTYJTgQPDuhH08N7/GLr1ObN6RVw3p8ufMwNocDBS9YVCmRrgGukIEXhAghUAUUnC6joKSUXV++P8PnFmnTT7nynXW7sJjVgAv3pZRoEqRQ+PvdPZk+uOsF/+43XZJ4bkxvVIMR3QuWSeIEucryBaJlEoDFrPLOul1s+ilX+twi7QlvmZFfUuZs1Rcob5rLAkigvNTG7En9mDao6yV/ktKsIRFhJpZt2IfRZAA8MLUjJRJJpabQrnE0D/fvyMaDx7A5NJSq1oaBcs9c56EJhd1HjpG7fvkMn1mk177eJDfnFBIiAqh81gWRJqHMqjH7/gFMTb+1Wj+d0q8zz07oR5lDoknhnmVynUelptCgjoVPnxrD7+/swSsPDKRSlzh0J+iBZJ0EECJ0NucU8trXm6RPQMouKJazlm9EWisDqt+jBBwSVIORl+4byLQ7utbo908M7cbssX1QVNXpFq/kQZ+DCFrFRfHjs5OJrVsbgBG3JvHWw0Mxmk3Y9ABzca6+lNJayazlG8kuKK7xCdbYtdVJ65uxbHOmcz4tUEy0KzrThcKssX2Z0r/zFam5uWVjDAI+35aF0ajUeIAskVTqCh0SGvD2o8NpGhP5i++TmsTSoI6FNXtzqLQ7UAOsZ6aiKBSWVlIrxMTa99+c4TWLlH2iSM7/ciMqeoB0EnFOd2gIyk+VM//e9CuGqEp+N6w7Twy5lbJT5c51L9WxTFIipU65Jmharw5vTx1Om/iYC/7phJ6pzBrXFzsK9qrpmkBwc66OJio687/cSPaJIuk1i7Q7rHXG3qMnMSuBMGCUSOl0ZzoKrzw0lIm90zyiuU/7RByqZNXubFRFXPqlcbkzq64QHxlO1r+nE1Xbckn9yU3jSE2I4a3v9iIgoAbgioAzVp1d2Sc4tHbZDI9bpLW7D8lvNu8nTA2Mi3ZCJAgxm/j3fekeg6hK/u/uvjw5pIsrA36RwXHVmEgXtG8Sw8oZk6qtf+BNrVk4eRBhoSGBM2aqatqlwjeb97O2BmW51bZImXVaZxSUVmDwd7jveng6YNMlLz8wiPE9Ur1yqN5JiZwtr2Tt9kOYTIZfrBR2DsYlFZogqXE0bz0ynBZx9WqkP7lpHPVrhbFy9xFnUjQQLJMQTmtvNLA37wR51UwHVMsivbR8g9x+pABTVV8jP0PkkILyCjtvPjSMsd1TvHrI58b35zc9kymttJ+zTFUQlWuChHp1+PQPo2kdH31F+if2SmXehH7YUXDoekCkBgRgEpLtRwp4afkG6RGQ9uQWyBe+2ozDZvd7uC8Buy4IDTXz/u9HMapbB58c993HRvLggJuxSgXNBZJVV2gdG8XB+dNoGBXhlv5xPVJY8uhwhMHsdHPCzzC50gEOm50XvtrM3tyCy57MZV1bSFLPjBVbMv3eOFRKiUMKLGFmXpo4gJG3Jvn0+ANSW3C0qIQfso4jFEHnFo15+9HhRNWyeER/m/hoGkSEsXZfLhU2R0Bsp6EqguOnyzAbBN8ve2fG5azYRWVfboFMfvwlhBAY/NVJ5FzGWlBRaWXZU+O4o2Nrv93cIf98m3UHj7P+z6Np3biBx/UvWrWFhxZ+jnTYMKjCv1uOSYkDZ6Z/26yHaB0fLa7IIm0zJ2bknCr9eWzka5BcENmlABQ+enI0g/wIETgner/eup9NWfmMuLmtx/UnN42jTVwk//1hP0gdRfgXJgFYpWDLwbxLzsNddIz03rodcsNPRwlR/Nc41AkRRNYO473pIxh4U6uAiJK/yZjIybPlpD/zplf0D725LYt+O4gQcyg2Tbom5/yXDghRJBt+Osp763bIGoF08kypnL18IybFf9MgVWOi8JAQXr5/EHfc5L4lyik8zbTFKzh6ssRtXcueHB1rtWsMnvm2V65/3G0pzLmnL5awMOcA3F+DbxdMJkUwe/lGTp4pldUGafHqrWzPzseoSN8z5IqKHFJQWW7j/ekjGZTmGXc2du77zPlsM4Nm/sdtXZYQ07Fvnp7AkaLTDPqHd2Ca0DOVWWN6O6dT9J/TDv5ILRkVyfbsfBav3lo9i7Qr+5h8fvlGhJSu7rPCtxABNgkRljDWzbyP29o1d1ttYUkpzR+cw7f7crAoDrZlnyDl8fkUlpS6rXv7rAcps1bSK+N1zpRXLvX0LZnYO41PnrgLTTG6YMIPMDnTAUJKnl++kV3Zv14P9yuQnvtkPflFpzEpvt9c1gmRoEFEbV5/cDBd2jR1W+e+vAIGzXybI0UlhBtAUVXCVdiVV8ioF5aSW3Ta7WOsyphEiFFl8LPveKW3dXpaa/49qT+W0FBsGv4ZMwmne8svOs1zn6y/tEXacfiYfHPdTixmo+tshe8skZTYdYHJoPLmQ0O5PaWl22ozj55gzNwP2Xr4GKHn7QknhMCMzpp9OYyd+wGlFdYB7h5rxR/HYjYY6PO3N7xyiyb1TuO5MX0xmc3YNN0Pbs45dWIxG3lz3U52/M8q3V+A9MCCjzEIxbfdZ6tmz6XAYDCy8ul76N62mfsD6xPFdH16EbuPFGD+3/SFECgCzOisz8yl658WfuaJS/niT+OotDnoNeP1c3Cu2XOIkbPfpehMmQfcXCqv3DsAaTBj13XfuzlXt1yDUHhgwccXtkgvrlgvtx4pxCx0n07KSiQ2XdC4fgTfPD2WjjfEu61z04Ec0p58mVNnKzAp+oUjTxdMoUJne84Jbv7DK+R5wM2t+9skLCEmRj6/5LO1e7IY8s93WfrtHgbPfJvSSvct393dO/DmlDswmkL8khoQQmAWOluPFPLiee1xFIDcwlPy1VU7kJrNtxBJiVUXxNeLYPFvB9O5RWO3dX679zCj537A6fJKQhQQQrm4dRUCoQjCVdh8+DjjX/zQIzB98uQoahlVev3tHSqtVsLDVDbsPcJv5iz57HRpudv67+qSxL8m9CPcEuaCSfocJqnZeHXVDnJd6+FUgKiOt2e8t2E3oaqP5tNcqyysUgFFYdVfxnOTByzRjsP5jJyzlLyTZ2pQfOfMk6hCcqjoDOv3HuFeD9Q2jbi1HZn5RWw/kIfRpGI2CvYeLWb/0ZMMSmsRazIYHndHf3LTOKIsZlbsOIzUXKtTfJQBFzjn4Y6eLiXSEsKqpW/MEEdOnJJtH5uHXXNg9BlEYNWhQd3afPmnsbRuFO222t05BXSY9hKqQbmyKR3XgL9MEyQ1imb1X++hrgcmZCcv+JhXV28nRJEoUlJqk3Rrl8BHj/+GSA/o/+THfdz5/FJU3YFR8eF0ipTYAaNqYPech1GL4lIzNh/KJ8RHzbEkEquu0iKuHu9OHU77prHuj0v2HObOWf+l1Gp15r+UK9j+/bz9zvLPlPNdZg492yUQYQl169wGprXibHkl3x88hoLEbBD8lF/Md5m5TOzlfkFey4b1iY8MZ9XeHCp9WTXgqvEutTkoKilDTeo3ImNnToH3u6ydt2iwcf06vPfoCFISG7qtdsO+bCbMX0Ze0WmMJhMDUhLRpeTk2XIUpYZvpwsmVZFkF51lS1Y+/TokEh5qdusc+3ZIpLyyktU7szEaFcwGhazjp9iWfYzb2ycSaja6pT+5aRzRtcJYvS8Hq93u00pLmy5JahyD8vfRfagVYsLhetjehsgSamJVxng6NItzW+2enALuePZdsguKcThgVJcbeXXyECJqh6NdaZpFCBQEZkXyXWYevTIWe+QW/GPM7TyY3omyMmelZbhZ4dMfDzB23gecLa98yu3UQK9UXhjfF6kanakBbz5Pl24HUCvExN9H90FpEl1XPDmkCzZNeufg5w2s28RHs/2fv6VJ/Ui31X6feYTUJ//N6dJKhEFl9G1JLPztUMqsNiqsDo+Y7RChsTe/mA7TX/JINPfifYPIGNMbh66g6QKLQfLZj/vp89c3njl51v1obnyPFJY8eieoZud0Cl7KM1VNZWmSJ4d0oUl0XaEAjL8tmXaNG2DVdI8ftmrRYNsmsfznkaEkNKjrts7Vu7IY9a/30RwS1aAy4bZk3po6HADdU7lUIRCKQrgq2XO0iDFzPyC7oNhttU+P7Mkfh3fDpkukUAgPMfBDZi4j5yzhdFmF2/oHd2zDSxP7ER5m8VqeSQJWTadd4waMvy355zxSfP264r6e7RGqyXMdOaRE6s5Fg7F1w1n62HCSmrg/sN6YmcPEl5aRV3gaBzC6aztefuAO7ybg0PnuQB53/+t9Sisq3U4q/mVED/7v7l6UlZQjhSA8RGXVzkOMffEDj8A0qXcaz4/ri9kcglXXPb4IU0qJUE3c17M98fXrinMgATyU3kWkNKmPVXqgi5mU6FJSKRWaxUTy48zJNG8Q5X6eKPsYtz39GkeLS3CgMqFHEoumDPV+dCLAjMaPWfmk/G7BZ2WVlW6/Eb8f1p2/T+pPuV1Hk5JwAyz/MZOhz73rkaqEcT2SWfLona4MuOfGTFI6hykpTerzUHqXc7b/F3NtL08egkPqyOouVb7EwWwopDVvyFd/GktMRLjbF7B2dxa9ZryOQwehqkzs0Z5FU+70VSoXRQhChU5WwWl6PL342KET7ru5p+7swZzxt6OoRjQpCDcqrNmRRfozb1FSVnHQXf39Uluy5NE7qWUJx6rJ8xyTO2MjgUPqvDx5yC+++gVI7ZvGinFdkyiz2qma7a35sXTKNEFKszj+8/CwXzVSuBJZtfMg98z/mJLSCoSiMKFHMq952xJdcMwkCFOc673uefFDj5SgTB14K8+O6Y1Vly43Z+DHzFzuen5pYtEZ9y3TgNRWvDp5IFF1wql0uMORsxqkzGpnXNck2jeNFRcFCeCJO7oQV6+uq7yz5mOiMocgpk44X/xxDImx7ruzbVlHGTXvQ/IKS3BoMOrWG1lw/yD8I87MsUnobMw8ypBn3/WI1in9b2bepAGUlZSj4RwzfbUzi7HzPuJshfupgaGdbuTVBwahGg1XPmaSzpxRXL26PHFHl199/SuQ2iXEimnpHZFCoFe35kVKdCRWVG5uEc/BeY/ERljC3L7Bmw7kkPL4AopLSkFRmdQ7mTceHo5fpSrPJDS2HjpG26nzOF3q/gB5Sr/OvPXk3RiNBhxSwaJKvtiyn65/XvRMfrH7NeYD01qz9dn7MZrMWGuc6nGOeaUQTEvvSLuEWHFZkMBZK9whIQ67LqrX1QVnR5C+Sc34+InfYAk1H3P3wr/ZcZBhs5Y4JzxNBh5L78RCX7uzy6UGDLD/+ElGzlnCsVNn3FY7ulsyiyYPIbpuLTQJ4SEGdhzOZ/A/3+WkB+qZWjeK4cs/jCYxLgqHXiNng10XdEiIY0LPC0/rXBCkqNrhYvrAzs5cR7XJFYSZDCgG9zcTWLvnEPe+/AmFJWcxCR2DohLh5jSFt1IDIUJnzZ7DTJq/zCM6G0dHYDEpSCEQEsJNKpt/OspdL7zPcQ/A2jAqgphaYejV7YBSlXzUJdMHdiaqdri48NO/hNzy+wXyh0OuMlXXm3ixKA3AIQzUDQ/hiYE389gF/Gj13FkuPTNex65rmIQ890ZoBgPNomrzxkPDSLtEyUn2iVMMf34Juw4dxawKn1QzVKU6Oic2ZP3f77ty9/bKp7y7YRc2mw1F/tywQwLldp3OrRJ4f9oIYiNrX5H+BV9uYtobn6EIFaE7Ll8p4IKoQhd0ahbLhpmTxcXNyCWkJku2qwZwDgSVFXZuvbEJU9NvoWubJjSoW70LX7XrEIP+8R80XTo3DnTBW7URjU13duy4u0s7HuiTSrcbf12Se8QF0k5fgVR1w6Wk1A4DUm7gv4+NeKpWWMgz1flp1vEivth2kGc+WEt+cSmhJgX1fyddXdNMpVbJjU1i+PypMcTXr17jimPFZ/hq+0HmLP+OHUcKCTUIVKWatUs1WLJ92bs8bfFn8vnl3xNurOZiyXMNOZ3gJTdtyJCbEunWphltGkUTWevXg/ADRwv5ZHMmc5Z/z8mzZRfdfVK68hhlNgfhYWZ6t2vOoNQbSGkaR4dmzkqCU6UVDHjmLbYezPUdSC7RdR07BnrdmMDD6Z3of5EFDMdPn2FfXiEfbdzD17uOsD/vBCFGFcMl66icS5FKbTqpiQ3587CudG3T9IL38+TZcvblnmDtnsMs2/YTmw/kYlCVmnXacz3HUrtk+sBOzJ4wUFx6YHMZ2ZNbIIc89x7Z+ScIMSjVfDDOi5YIbA4NoSrUrxtBfYuJ+AgL8fUiiLCEcrzkLEeLz3DwxFmOnz6Lw2bHqF7mbTmv0ZbVrhESGkr92uHE1DJyQ4MoLGYTX2w/SGHJWVRft+Fx7cBk1yGiTjiN64TRrkk0jaIisJiN5J86S3ZhMYeKSikqtVJ48hQGVcGoOHN2opovqVWT1LJYaBwVTmJMXVrERlIrNISTZ8vIP3mGHbmFnLZqFJ4qQeo6JlX8PBiu7v2QkkqHTkJcNMueuIs28THugQTORluPv/MNilbDHknnNVDXdR1dCrRzKzkUpK6jIFEFTnNeg4YJVeMyKSWaDroQ6NLZmdUgJAp+2lO3CnTdWWahyZ9fPuG6G6rUUQSozoKpmtUOVemXrp7dQkEXgFQQ6O7rP2/cp6tGZo3qzYMDb7nsj6ut/eY/LJCbs/Kd5rGmD6hqT47LR9XUrExUVv27YETlN6nu9db0Af+Pxb9Q5tkT+p2LMiCteRzf/2NytRRUO1afObov9jKr8/RqmhV17Q92uU/Na43FRXX7Pc9Uneu94vO8kD7FM/qlE0h7mZWZo/tW+2fVBql722aid1oryrXA2wIhKJ61pOUa9E5rRfe2zYTHQQJY+OAgosJNzp1+gnJNikNCVLiJhQ/WbD6zRiAlRNcTU27vjIZy8d7TQblqrZEOaChMub0zCdH1hNdAApjQI5nEBpHYHFrw5l9jYnNoJDaIZEKP5Br/tsYgJcREiscHdkaYQ5zVAUGrdG1YIykR5hAeH9iZhJhI4XWQACb16SjS4utTqSsEMboGOAIqdYW0+PpM6tPxikLJK56qf+HedDRNC0Zw10ikpmkaL9ybfsVqrhikjonxYlTXdpRZtaBVusqtUZlVY1TXdnRMjBc+Bwlg5pi+NI+Nci6uDFqlq9AYSWyapHlsFDPH9HVLl1sgNa5fV0zqmYyiGoIgXaUgKaqBST2Taexan+YXkAAm9+3IDQ0isesEYbrKILLr0CI2ksl9O7qtz22QImtbxNMjb8OGeq4ALSiBD5Fz7aHK0yNuI7K2RfgdJIDht7QTPVs3pEIXwad0lUiFJujVKo47b2nnkYemeOrEXpg4kFCDii5FMB0Q4OG+LgWhJpU5Ez23PtBjICUlxIoJvVIot9qC6YAAD/fLrTYm9EwhqWmsCDiQAB4fdAtJifHBdECAh/tJifE8PugWj+r2KEgJMVHi3h5JKEZjEKRADfeNRu7tkURCTJQIWJAAHknvIto1qodNiiBMgWaNpKBdo3o8cl47moAFCWD2uH7YSyvOrUkLiv8hQgjspRXMHtfPK8fwCkjd2jYTd3bvQJldnosUguK/KA2gzC4Z3r0D3WpQPut3kABm3NWT6NphwbLcABCHhOjaYWTc1dNrx/AaSG0TYsWkHsnYHP7arC4oVcuWbA7JpB7JtE2IFVcdSABT+neiQ/OG2M5tCRUUX3s1m67ToXlDpvTv5NVjeRWkRvUixNTbU5GK0eOdVYNyeYqklEjFyNTbU2lUL0JctSABjO91k0hLiMZGsCzXt04NZ0PYhBjG97rJ65Ogii8u6oVJ6djPVrjdLTcoNbBGCOxnKnhhUn+fHNInIHVq0Vg8PKwbZXY9WOPtE4igzKHz8PBudGrRRFwzIAE81K8jzWPqOneJDopXxaZB85hIHurX0WfH9BlILRtFi3tua49QDa5uuUHxhuhSgmrgnu5JtGwYLa45kAAeSb9lacvYutiCZble8moSmw6tY+vySPotS315bJ+CVMcSOvKfY3pjlyI4VvLS2MguBTPH9KaOJXTkNQsSQP/U1qJHm3gqtGCu29PhfoUGPdrE0z+1tc9rnhV/XPTzE9JRXY3qglbJM9ZIB1QEz09I98sp+AWk5KZx4onBXSi3BdMBnnJp5TadJwZ3IblpnLhuQAK4v08K7RJivLJr5fXm0qyaTruEGO7vk+K38/AbSAkxUeKe7kmoRnMwgnMzUlONZu7p7vny2asCJIDpg7uLFtF1sOrBSsorhciqC1pE12H64O5+XVSo+PtmLHpkGA7Xtk9BmGoGkQQcms6iR4b5/Xz8DlJas0ZiaMcWlNn0IB01lDKbztCOLUlr1khc9yABZNzVi3q1Lc6y3KBVqlak5pBQr7aFjLt6BcQpBQRI7ZvGiYf7d8Kuy2BfympApEuJXZc83L8T7f0U7gckSM50QCopzRthl8GM9+XCfbuE5OaNuL9PasCcV8CAFBtZRzzQKxldqMHFApfASErQhMqUXinERtYRQZAuIPf26Si6t4zHLpWgd7uwV8MuFXq0jGdin5sCqofQ/wOvrcflkh471QAAAABJRU5ErkJggg==;" parent="1" vertex="1">
          <mxGeometry x="81.50999999999999" y="267" width="48.66" height="42" as="geometry" />
        </mxCell>
        <mxCell id="E3hp2NVlANM56iqE5sIz-4" value="" style="shape=image;verticalLabelPosition=bottom;labelBackgroundColor=default;verticalAlign=top;aspect=fixed;imageAspect=0;image=data:image/png,iVBORw0KGgoAAAANSUhEUgAAAJIAAAB+CAYAAADP/Uh3AAABhWlDQ1BJQ0MgcHJvZmlsZQAAKJF9kT1Iw0AcxV9TS6VUFKwi4pChOlkQFXHUKhShQqgVWnUwufRDaNKQtLg4Cq4FBz8Wqw4uzro6uAqC4AeIo5OToouU+L+k0CLGg+N+vLv3uHsHCPUS06yOMUDTK2YqERcz2RUx+IoQ+tGDAPpkZhmzkpSE5/i6h4+vdzGe5X3uz9Gl5iwG+ETiGWaYFeJ14qnNisF5nzjCirJKfE48atIFiR+5rrj8xrngsMAzI2Y6NUccIRYLbay0MSuaGvEkcVTVdMoXMi6rnLc4a6Uqa96TvzCc05eXuE5zCAksYBESRCioYgMlVBCjVSfFQor24x7+QccvkUsh1wYYOeZRhgbZ8YP/we9urfzEuJsUjgOBF9v+GAaCu0CjZtvfx7bdOAH8z8CV3vKX68D0J+m1lhY9Arq3gYvrlqbsAZc7wMCTIZuyI/lpCvk88H5G35QFem+B0KrbW3Mfpw9AmrpK3gAHh8BIgbLXPN7d2d7bv2ea/f0AKG1yiU9TKcwAAAAGYktHRACpAP8A3luHjaYAAAAJcEhZcwAALiMAAC4jAXilP3YAAAAHdElNRQfmChYQBjhRdf61AAAAGXRFWHRDb21tZW50AENyZWF0ZWQgd2l0aCBHSU1QV4EOFwAAHZRJREFUeNrtnXd8VFX2wL/3vSlJJkBIICGBQIBIEwIpAipFqkBAioArVcDCYkFB1123GHZ/67IK4oKyqAjqWlawoWCnCSIivQcJhCQEQkIgkDblvfv7YyaIKyVhKjDnw/zBZzLnte87555zzz1XEGDS6y+vyXX7czEpOkIIgvKzSCmx6QrdWsXzzV8nBdTNUQLpZBZ+vUmuzczFKHSCDP1ahACj0Fmdmcuir3+UQZAuIMeKS+TLK7ehSM0FUZCkC6CEEKBKjfkrt3KsuEQGQfofeeXrLWzNysMogghdGiUwCtiWlccrX28JWqTzZcfhfDnv8x8wKgJFCIJ+7dL+TRECoyKY9/kP7DicL4MguSTjvZUUnSnDIAhCVE2YDAKKzpSR8d7KoEUC2HwoT3606QDhJiUISA0l3KTw0aZMNh/Kk9c9SBPnfohBFa4XLWiNqm+UnPfKoCpMnPvh9W2RZi9bKw8UlmBWZBCiK4TJrEgOFJYwe9laeV2ClF1wUr6+ZieazRqEyE2YNJuV19fsJLvgpLzuQHrl663syinArCrBcN/NdIBZVdiVU8ArX2+9vizStsP58rll6wkzuiAKWiS3IjgBhBkVnlu2nm1+Sgf4BaRpi1egIZ0HD0LkEZgUQEMybfGK68Mifb5ln1y9N5dQNZjB9rSLC1Vh9d5cPt+yT17TIJWUVSx58q1vMAoZdGlecnFGIfn9W99QUlax5JoFae6KDSMyj53CpARzRt6K4EwK7Dt2irkrNoy4JkHKzDshX1+zA6k5nPNpQfHOAxUCNAevr91J5tET8poD6cUvfiCr4BQmNfiwvS0mFbIKinnxi03XlkXa9FOOnPfhOizBcN9nYyWLQWHeB9+y6accec2ANHXhCoy1QhHIIEQ+g0lirBXK1IW+SQd4HaQ3Vv4oN2efwIQeDPd9nA4wobM5+wRvrPR+Wa5XQcorOi3/9eUWhG53RmlBa+RbqyQEQrfzry+3kFd0Wl61IM3//Ae2Zx3FpCpBhvzDEiZVYXvWUeZ//sPVaZH2HDkuF67ehskgXC4tSJI/HJwATAbBwtXb2HPkuLzqQPrLeyspLCl3ls8Gxa9iEFBYUu7VslyvgPTt7kPygzXbsZjEzzY2KP7zb4DFJFi6Zjvf7j4krxqQpr/5BabwUJDBysfAYEmAlBjDQ5n+5hdXh0Wau2K93JVX5JyYDUIUUDCZhGRXXhFzV6yXAQ1SdsFJuXD1TnS7PQhRgMKk2+0sXO35slyPgjTr0w3sPJiLSRVBkALVKqmCnQdzmfXphsC0SDuzj8nFK7cSZjYFA/2ATghAmNnE4lVb2Xn4mAw4kB5dtJwKh4YiAnc+TUp57nM9R3GKkFTYNB5b9GlgWaT3N+ySq/YdJVQJ3AckpUSXYNNBc/3/epZQVbJyfz4fbNglAwKk4jNlcsaSNZjQnHM7gWiNpESTEpPJxLCOLalXJxy7fv3CVPWcTGjMWLqGk2fKpN9BWvDVJn46XowxUMtnpUQXggq75HdDuvDu9FEsuHcQNgk6ynUNk1GBA8eKefmrTf61SDmFp+Rrq7aha47AhQhB2alynh7RnT8M6w7AgLRWvHzfQMqtDhzSy5ZJSucnUNMBmoPXVm0jp/CUWyfpVuFrQVxKxrd7sgk1KoEHkpTYJTgQPDuhH08N7/GLr1ObN6RVw3p8ufMwNocDBS9YVCmRrgGukIEXhAghUAUUnC6joKSUXV++P8PnFmnTT7nynXW7sJjVgAv3pZRoEqRQ+PvdPZk+uOsF/+43XZJ4bkxvVIMR3QuWSeIEucryBaJlEoDFrPLOul1s+ilX+twi7QlvmZFfUuZs1Rcob5rLAkigvNTG7En9mDao6yV/ktKsIRFhJpZt2IfRZAA8MLUjJRJJpabQrnE0D/fvyMaDx7A5NJSq1oaBcs9c56EJhd1HjpG7fvkMn1mk177eJDfnFBIiAqh81gWRJqHMqjH7/gFMTb+1Wj+d0q8zz07oR5lDoknhnmVynUelptCgjoVPnxrD7+/swSsPDKRSlzh0J+iBZJ0EECJ0NucU8trXm6RPQMouKJazlm9EWisDqt+jBBwSVIORl+4byLQ7utbo908M7cbssX1QVNXpFq/kQZ+DCFrFRfHjs5OJrVsbgBG3JvHWw0Mxmk3Y9ABzca6+lNJayazlG8kuKK7xCdbYtdVJ65uxbHOmcz4tUEy0KzrThcKssX2Z0r/zFam5uWVjDAI+35aF0ajUeIAskVTqCh0SGvD2o8NpGhP5i++TmsTSoI6FNXtzqLQ7UAOsZ6aiKBSWVlIrxMTa99+c4TWLlH2iSM7/ciMqeoB0EnFOd2gIyk+VM//e9CuGqEp+N6w7Twy5lbJT5c51L9WxTFIipU65Jmharw5vTx1Om/iYC/7phJ6pzBrXFzsK9qrpmkBwc66OJio687/cSPaJIuk1i7Q7rHXG3qMnMSuBMGCUSOl0ZzoKrzw0lIm90zyiuU/7RByqZNXubFRFXPqlcbkzq64QHxlO1r+nE1Xbckn9yU3jSE2I4a3v9iIgoAbgioAzVp1d2Sc4tHbZDI9bpLW7D8lvNu8nTA2Mi3ZCJAgxm/j3fekeg6hK/u/uvjw5pIsrA36RwXHVmEgXtG8Sw8oZk6qtf+BNrVk4eRBhoSGBM2aqatqlwjeb97O2BmW51bZImXVaZxSUVmDwd7jveng6YNMlLz8wiPE9Ur1yqN5JiZwtr2Tt9kOYTIZfrBR2DsYlFZogqXE0bz0ynBZx9WqkP7lpHPVrhbFy9xFnUjQQLJMQTmtvNLA37wR51UwHVMsivbR8g9x+pABTVV8jP0PkkILyCjtvPjSMsd1TvHrI58b35zc9kymttJ+zTFUQlWuChHp1+PQPo2kdH31F+if2SmXehH7YUXDoekCkBgRgEpLtRwp4afkG6RGQ9uQWyBe+2ozDZvd7uC8Buy4IDTXz/u9HMapbB58c993HRvLggJuxSgXNBZJVV2gdG8XB+dNoGBXhlv5xPVJY8uhwhMHsdHPCzzC50gEOm50XvtrM3tyCy57MZV1bSFLPjBVbMv3eOFRKiUMKLGFmXpo4gJG3Jvn0+ANSW3C0qIQfso4jFEHnFo15+9HhRNWyeER/m/hoGkSEsXZfLhU2R0Bsp6EqguOnyzAbBN8ve2fG5azYRWVfboFMfvwlhBAY/NVJ5FzGWlBRaWXZU+O4o2Nrv93cIf98m3UHj7P+z6Np3biBx/UvWrWFhxZ+jnTYMKjCv1uOSYkDZ6Z/26yHaB0fLa7IIm0zJ2bknCr9eWzka5BcENmlABQ+enI0g/wIETgner/eup9NWfmMuLmtx/UnN42jTVwk//1hP0gdRfgXJgFYpWDLwbxLzsNddIz03rodcsNPRwlR/Nc41AkRRNYO473pIxh4U6uAiJK/yZjIybPlpD/zplf0D725LYt+O4gQcyg2Tbom5/yXDghRJBt+Osp763bIGoF08kypnL18IybFf9MgVWOi8JAQXr5/EHfc5L4lyik8zbTFKzh6ssRtXcueHB1rtWsMnvm2V65/3G0pzLmnL5awMOcA3F+DbxdMJkUwe/lGTp4pldUGafHqrWzPzseoSN8z5IqKHFJQWW7j/ekjGZTmGXc2du77zPlsM4Nm/sdtXZYQ07Fvnp7AkaLTDPqHd2Ca0DOVWWN6O6dT9J/TDv5ILRkVyfbsfBav3lo9i7Qr+5h8fvlGhJSu7rPCtxABNgkRljDWzbyP29o1d1ttYUkpzR+cw7f7crAoDrZlnyDl8fkUlpS6rXv7rAcps1bSK+N1zpRXLvX0LZnYO41PnrgLTTG6YMIPMDnTAUJKnl++kV3Zv14P9yuQnvtkPflFpzEpvt9c1gmRoEFEbV5/cDBd2jR1W+e+vAIGzXybI0UlhBtAUVXCVdiVV8ioF5aSW3Ta7WOsyphEiFFl8LPveKW3dXpaa/49qT+W0FBsGv4ZMwmne8svOs1zn6y/tEXacfiYfHPdTixmo+tshe8skZTYdYHJoPLmQ0O5PaWl22ozj55gzNwP2Xr4GKHn7QknhMCMzpp9OYyd+wGlFdYB7h5rxR/HYjYY6PO3N7xyiyb1TuO5MX0xmc3YNN0Pbs45dWIxG3lz3U52/M8q3V+A9MCCjzEIxbfdZ6tmz6XAYDCy8ul76N62mfsD6xPFdH16EbuPFGD+3/SFECgCzOisz8yl658WfuaJS/niT+OotDnoNeP1c3Cu2XOIkbPfpehMmQfcXCqv3DsAaTBj13XfuzlXt1yDUHhgwccXtkgvrlgvtx4pxCx0n07KSiQ2XdC4fgTfPD2WjjfEu61z04Ec0p58mVNnKzAp+oUjTxdMoUJne84Jbv7DK+R5wM2t+9skLCEmRj6/5LO1e7IY8s93WfrtHgbPfJvSSvct393dO/DmlDswmkL8khoQQmAWOluPFPLiee1xFIDcwlPy1VU7kJrNtxBJiVUXxNeLYPFvB9O5RWO3dX679zCj537A6fJKQhQQQrm4dRUCoQjCVdh8+DjjX/zQIzB98uQoahlVev3tHSqtVsLDVDbsPcJv5iz57HRpudv67+qSxL8m9CPcEuaCSfocJqnZeHXVDnJd6+FUgKiOt2e8t2E3oaqP5tNcqyysUgFFYdVfxnOTByzRjsP5jJyzlLyTZ2pQfOfMk6hCcqjoDOv3HuFeD9Q2jbi1HZn5RWw/kIfRpGI2CvYeLWb/0ZMMSmsRazIYHndHf3LTOKIsZlbsOIzUXKtTfJQBFzjn4Y6eLiXSEsKqpW/MEEdOnJJtH5uHXXNg9BlEYNWhQd3afPmnsbRuFO222t05BXSY9hKqQbmyKR3XgL9MEyQ1imb1X++hrgcmZCcv+JhXV28nRJEoUlJqk3Rrl8BHj/+GSA/o/+THfdz5/FJU3YFR8eF0ipTYAaNqYPech1GL4lIzNh/KJ8RHzbEkEquu0iKuHu9OHU77prHuj0v2HObOWf+l1Gp15r+UK9j+/bz9zvLPlPNdZg492yUQYQl169wGprXibHkl3x88hoLEbBD8lF/Md5m5TOzlfkFey4b1iY8MZ9XeHCp9WTXgqvEutTkoKilDTeo3ImNnToH3u6ydt2iwcf06vPfoCFISG7qtdsO+bCbMX0Ze0WmMJhMDUhLRpeTk2XIUpYZvpwsmVZFkF51lS1Y+/TokEh5qdusc+3ZIpLyyktU7szEaFcwGhazjp9iWfYzb2ycSaja6pT+5aRzRtcJYvS8Hq93u00pLmy5JahyD8vfRfagVYsLhetjehsgSamJVxng6NItzW+2enALuePZdsguKcThgVJcbeXXyECJqh6NdaZpFCBQEZkXyXWYevTIWe+QW/GPM7TyY3omyMmelZbhZ4dMfDzB23gecLa98yu3UQK9UXhjfF6kanakBbz5Pl24HUCvExN9H90FpEl1XPDmkCzZNeufg5w2s28RHs/2fv6VJ/Ui31X6feYTUJ//N6dJKhEFl9G1JLPztUMqsNiqsDo+Y7RChsTe/mA7TX/JINPfifYPIGNMbh66g6QKLQfLZj/vp89c3njl51v1obnyPFJY8eieoZud0Cl7KM1VNZWmSJ4d0oUl0XaEAjL8tmXaNG2DVdI8ftmrRYNsmsfznkaEkNKjrts7Vu7IY9a/30RwS1aAy4bZk3po6HADdU7lUIRCKQrgq2XO0iDFzPyC7oNhttU+P7Mkfh3fDpkukUAgPMfBDZi4j5yzhdFmF2/oHd2zDSxP7ER5m8VqeSQJWTadd4waMvy355zxSfP264r6e7RGqyXMdOaRE6s5Fg7F1w1n62HCSmrg/sN6YmcPEl5aRV3gaBzC6aztefuAO7ybg0PnuQB53/+t9Sisq3U4q/mVED/7v7l6UlZQjhSA8RGXVzkOMffEDj8A0qXcaz4/ri9kcglXXPb4IU0qJUE3c17M98fXrinMgATyU3kWkNKmPVXqgi5mU6FJSKRWaxUTy48zJNG8Q5X6eKPsYtz39GkeLS3CgMqFHEoumDPV+dCLAjMaPWfmk/G7BZ2WVlW6/Eb8f1p2/T+pPuV1Hk5JwAyz/MZOhz73rkaqEcT2SWfLona4MuOfGTFI6hykpTerzUHqXc7b/F3NtL08egkPqyOouVb7EwWwopDVvyFd/GktMRLjbF7B2dxa9ZryOQwehqkzs0Z5FU+70VSoXRQhChU5WwWl6PL342KET7ru5p+7swZzxt6OoRjQpCDcqrNmRRfozb1FSVnHQXf39Uluy5NE7qWUJx6rJ8xyTO2MjgUPqvDx5yC+++gVI7ZvGinFdkyiz2qma7a35sXTKNEFKszj+8/CwXzVSuBJZtfMg98z/mJLSCoSiMKFHMq952xJdcMwkCFOc673uefFDj5SgTB14K8+O6Y1Vly43Z+DHzFzuen5pYtEZ9y3TgNRWvDp5IFF1wql0uMORsxqkzGpnXNck2jeNFRcFCeCJO7oQV6+uq7yz5mOiMocgpk44X/xxDImx7ruzbVlHGTXvQ/IKS3BoMOrWG1lw/yD8I87MsUnobMw8ypBn3/WI1in9b2bepAGUlZSj4RwzfbUzi7HzPuJshfupgaGdbuTVBwahGg1XPmaSzpxRXL26PHFHl199/SuQ2iXEimnpHZFCoFe35kVKdCRWVG5uEc/BeY/ERljC3L7Bmw7kkPL4AopLSkFRmdQ7mTceHo5fpSrPJDS2HjpG26nzOF3q/gB5Sr/OvPXk3RiNBhxSwaJKvtiyn65/XvRMfrH7NeYD01qz9dn7MZrMWGuc6nGOeaUQTEvvSLuEWHFZkMBZK9whIQ67LqrX1QVnR5C+Sc34+InfYAk1H3P3wr/ZcZBhs5Y4JzxNBh5L78RCX7uzy6UGDLD/+ElGzlnCsVNn3FY7ulsyiyYPIbpuLTQJ4SEGdhzOZ/A/3+WkB+qZWjeK4cs/jCYxLgqHXiNng10XdEiIY0LPC0/rXBCkqNrhYvrAzs5cR7XJFYSZDCgG9zcTWLvnEPe+/AmFJWcxCR2DohLh5jSFt1IDIUJnzZ7DTJq/zCM6G0dHYDEpSCEQEsJNKpt/OspdL7zPcQ/A2jAqgphaYejV7YBSlXzUJdMHdiaqdri48NO/hNzy+wXyh0OuMlXXm3ixKA3AIQzUDQ/hiYE389gF/Gj13FkuPTNex65rmIQ890ZoBgPNomrzxkPDSLtEyUn2iVMMf34Juw4dxawKn1QzVKU6Oic2ZP3f77ty9/bKp7y7YRc2mw1F/tywQwLldp3OrRJ4f9oIYiNrX5H+BV9uYtobn6EIFaE7Ll8p4IKoQhd0ahbLhpmTxcXNyCWkJku2qwZwDgSVFXZuvbEJU9NvoWubJjSoW70LX7XrEIP+8R80XTo3DnTBW7URjU13duy4u0s7HuiTSrcbf12Se8QF0k5fgVR1w6Wk1A4DUm7gv4+NeKpWWMgz1flp1vEivth2kGc+WEt+cSmhJgX1fyddXdNMpVbJjU1i+PypMcTXr17jimPFZ/hq+0HmLP+OHUcKCTUIVKWatUs1WLJ92bs8bfFn8vnl3xNurOZiyXMNOZ3gJTdtyJCbEunWphltGkUTWevXg/ADRwv5ZHMmc5Z/z8mzZRfdfVK68hhlNgfhYWZ6t2vOoNQbSGkaR4dmzkqCU6UVDHjmLbYezPUdSC7RdR07BnrdmMDD6Z3of5EFDMdPn2FfXiEfbdzD17uOsD/vBCFGFcMl66icS5FKbTqpiQ3587CudG3T9IL38+TZcvblnmDtnsMs2/YTmw/kYlCVmnXacz3HUrtk+sBOzJ4wUFx6YHMZ2ZNbIIc89x7Z+ScIMSjVfDDOi5YIbA4NoSrUrxtBfYuJ+AgL8fUiiLCEcrzkLEeLz3DwxFmOnz6Lw2bHqF7mbTmv0ZbVrhESGkr92uHE1DJyQ4MoLGYTX2w/SGHJWVRft+Fx7cBk1yGiTjiN64TRrkk0jaIisJiN5J86S3ZhMYeKSikqtVJ48hQGVcGoOHN2opovqVWT1LJYaBwVTmJMXVrERlIrNISTZ8vIP3mGHbmFnLZqFJ4qQeo6JlX8PBiu7v2QkkqHTkJcNMueuIs28THugQTORluPv/MNilbDHknnNVDXdR1dCrRzKzkUpK6jIFEFTnNeg4YJVeMyKSWaDroQ6NLZmdUgJAp+2lO3CnTdWWahyZ9fPuG6G6rUUQSozoKpmtUOVemXrp7dQkEXgFQQ6O7rP2/cp6tGZo3qzYMDb7nsj6ut/eY/LJCbs/Kd5rGmD6hqT47LR9XUrExUVv27YETlN6nu9db0Af+Pxb9Q5tkT+p2LMiCteRzf/2NytRRUO1afObov9jKr8/RqmhV17Q92uU/Na43FRXX7Pc9Uneu94vO8kD7FM/qlE0h7mZWZo/tW+2fVBql722aid1oryrXA2wIhKJ61pOUa9E5rRfe2zYTHQQJY+OAgosJNzp1+gnJNikNCVLiJhQ/WbD6zRiAlRNcTU27vjIZy8d7TQblqrZEOaChMub0zCdH1hNdAApjQI5nEBpHYHFrw5l9jYnNoJDaIZEKP5Br/tsYgJcREiscHdkaYQ5zVAUGrdG1YIykR5hAeH9iZhJhI4XWQACb16SjS4utTqSsEMboGOAIqdYW0+PpM6tPxikLJK56qf+HedDRNC0Zw10ikpmkaL9ybfsVqrhikjonxYlTXdpRZtaBVusqtUZlVY1TXdnRMjBc+Bwlg5pi+NI+Nci6uDFqlq9AYSWyapHlsFDPH9HVLl1sgNa5fV0zqmYyiGoIgXaUgKaqBST2Taexan+YXkAAm9+3IDQ0isesEYbrKILLr0CI2ksl9O7qtz22QImtbxNMjb8OGeq4ALSiBD5Fz7aHK0yNuI7K2RfgdJIDht7QTPVs3pEIXwad0lUiFJujVKo47b2nnkYemeOrEXpg4kFCDii5FMB0Q4OG+LgWhJpU5Ez23PtBjICUlxIoJvVIot9qC6YAAD/fLrTYm9EwhqWmsCDiQAB4fdAtJifHBdECAh/tJifE8PugWj+r2KEgJMVHi3h5JKEZjEKRADfeNRu7tkURCTJQIWJAAHknvIto1qodNiiBMgWaNpKBdo3o8cl47moAFCWD2uH7YSyvOrUkLiv8hQgjspRXMHtfPK8fwCkjd2jYTd3bvQJldnosUguK/KA2gzC4Z3r0D3WpQPut3kABm3NWT6NphwbLcABCHhOjaYWTc1dNrx/AaSG0TYsWkHsnYHP7arC4oVcuWbA7JpB7JtE2IFVcdSABT+neiQ/OG2M5tCRUUX3s1m67ToXlDpvTv5NVjeRWkRvUixNTbU5GK0eOdVYNyeYqklEjFyNTbU2lUL0JctSABjO91k0hLiMZGsCzXt04NZ0PYhBjG97rJ65Ogii8u6oVJ6djPVrjdLTcoNbBGCOxnKnhhUn+fHNInIHVq0Vg8PKwbZXY9WOPtE4igzKHz8PBudGrRRFwzIAE81K8jzWPqOneJDopXxaZB85hIHurX0WfH9BlILRtFi3tua49QDa5uuUHxhuhSgmrgnu5JtGwYLa45kAAeSb9lacvYutiCZble8moSmw6tY+vySPotS315bJ+CVMcSOvKfY3pjlyI4VvLS2MguBTPH9KaOJXTkNQsSQP/U1qJHm3gqtGCu29PhfoUGPdrE0z+1tc9rnhV/XPTzE9JRXY3qglbJM9ZIB1QEz09I98sp+AWk5KZx4onBXSi3BdMBnnJp5TadJwZ3IblpnLhuQAK4v08K7RJivLJr5fXm0qyaTruEGO7vk+K38/AbSAkxUeKe7kmoRnMwgnMzUlONZu7p7vny2asCJIDpg7uLFtF1sOrBSsorhciqC1pE12H64O5+XVSo+PtmLHpkGA7Xtk9BmGoGkQQcms6iR4b5/Xz8DlJas0ZiaMcWlNn0IB01lDKbztCOLUlr1khc9yABZNzVi3q1Lc6y3KBVqlak5pBQr7aFjLt6BcQpBQRI7ZvGiYf7d8Kuy2BfympApEuJXZc83L8T7f0U7gckSM50QCopzRthl8GM9+XCfbuE5OaNuL9PasCcV8CAFBtZRzzQKxldqMHFApfASErQhMqUXinERtYRQZAuIPf26Si6t4zHLpWgd7uwV8MuFXq0jGdin5sCqofQ/wOvrcflkh471QAAAABJRU5ErkJggg==;" parent="1" vertex="1">
          <mxGeometry x="466.5" y="201" width="48.66" height="42" as="geometry" />
        </mxCell>
        <mxCell id="7Gss2XMQbhKtfwvC3-nR-1" value="" style="shape=image;verticalLabelPosition=bottom;labelBackgroundColor=default;verticalAlign=top;aspect=fixed;imageAspect=0;image=data:image/png,iVBORw0KGgoAAAANSUhEUgAAAOEAAADhCAMAAAAJbSJIAAABR1BMVEX///8AAAD/cz7j9v3N7ff/azz/bz+z0fP/X0Kvz/Ll+P0EBwfm7/v/cTv/cj7h4eHs7OzK8//AwMD/bjX/ay3/Wzv/qXj5+fn/9/X/bzff8/z/Y0H/WThNTU1ra2vU8Pm82PX/UCr/glS1tbXD3fb/VTFaWlrz8/Otra3Y2Nj/aSjPz8///Pr/sJb/vaejo6OOjo43Nzd1dXXT6vmWlpb/lnL/ybgaGhovLy9ZWVnK4vff7Pvu9Pz/7+z/mokpKSn/z8f/hnH/oYH/hln/5Nv/2s6EhITtppDzlHjosaH/bFDR4+r/dlz/r6H/pZb/jXreysXiv7b1i2v/k2H/nm3wnoT6fVXprJzroJbmr6nfwsHyinv/aUz3eWT/vbLluq2wiX/bYTCCMAO3TSEpGRReIwQ2GhCrTyxvNR9QJxePQybDw9n/XAA1R4+fAAASPklEQVR4nO2d6V8aSRrHGwxyKGDbzXAIhqtVDk8EEwQvwEzUqElmJ3MYs7Ozu5mdzf//euvoOrsbTVbo7vnwe7Ej3QWpbz9PPU89VQWrKDPNNNNMM80000wzzTTTTDPNNEWle4uH3WoRqlptHS723O7Qk6p3WC2Go5LCxe5i2u2ePYXSi90w4ql2W60cVqvVNZHDXb/bsgfxwtVWbi6GNAdl/plrdYsAsuhnyMMitFJrjqBJApdzLQhZ9SnjITBfteVAxyhz0MzFRbd7+/UCfOFubjyeCTkHDVn0mR17oM+A72E805AtaG8/RdYu6O/cY/koY/jQ7X4/Vr1wtPho+zFfrfrGjIfAQR8z/iyM0Ix+GI3VaJgzYExReFic8Z0QY8CMnvfUdDFa5EcgvAZf5p4/f8br+XM7zlgL2N9thPECQ7ArOCi6mBPpGKUlGkHEqtsQ49SLSoBzMHTY82HJlozlQJhyG8NZwIItDjCdhgMvNg4QWtJHiGkBEMQYpTcezpYxNhf2rKMKgCizzT2KUPJVaEVvIha5MRhDV3KPBJTMCBG9mDS60SoFRHk7ZoeiAtmbkRvAMKJ6r9g4jBZpH5GHWgyoqpe127efPv1yW3tmg8mbESJ6bQKX5mYyqG9SBFWf3b4aZHWoel2ff/fp0gIpIFY9F1CLLMpAwLTM97pc1+KJIFQISq+/ux2HOOe1oXjIBiEE7El8HwBekGoeMYbqP8qMHGIsF416aRaeDoed06B6W9aDgkKm6t8/Ux0Rq55KGV3qoxBQdFH1Qz0eDNojavM1R0Tgp96Jpz0WR+FL0fXauswXDCZC1IxvJUSWUlseCjbVKImj8JUYRd9pECluRhlpKNogsulNrOiZYMNMCH1UyIPq99CCicTgfTlrb8RQXYo3cx40omBCYSajvkKAwe+A3sftjRiq1xyGomeMyEwIE4UAeIvGYPwHSPhdOWFvxNC8OHBznjMiDaQWH30Wx3ZDgN8NBCNyhPoHBz8F4dQTOTEcZj4qJAr1FYoywTgmLDu5qaOfxrqeWLVZJEUTNKEQRy817JfxAQT8wSlhAH3vYMRcNOw2ngKdNEdHoWjCD5pJAxF/CCacCfVLh5FY9ELWDxeZk4qpMEjdMp7NSglRInxlb0QQa9yfuvV4JxW6eWszmbEPNaFQ3CHte8FNuyQZKtKyjPq37OMJHWONB6JpMepgQjVomXA7E+qvHdy0627S7x0e9sgwjMk1xWV9LKBIKEdT4qYw6S8euragkYaHKcgwTMtrh7WvIvxReC9zUzAQwT/iFuJiNByma6SKFEnVt+MDjUQozdyYm4bhv+FWysCEOYdh+OmrCKWMyAiLrhOayxeWYai+1hKhlZVIJLKyMu9IuIIFgqlESAdi1X1CGmjEFWD1Qz7CtJKwIVzh7ss2JAMRBFO3CYsOgeanVCSSMoxUJG8g1JAEmIB8qbwBlIdNTy9VW8KW64RVGmiEwumjEcmXbk6G/Ux/9OaiBM0kAkK+0sf7k+Hw5P6qlAKwDQHRi4R8KL1IRUpHfdry5CIvIs4DQK5B/wg8g5KwnEEIc24TknSo8ITqaT6SOuGbNo8M3lGBBVMRocEJ8NR8zS+E6s9GxBhJjSEijalgDKaG4v0heCgXqoVwzpOEl6VI6cTS+jRF/RT4aGko3x+WIsbPqi8I1Z/yqRvSZilJ/uqnqBFXIvk3rAGZkl3nI3detKFNpLmL5M0Ysr4WCBw3GMEKMeFd07y4FwgcVPCfmUjE+EWVCN0fhzaxtFFKnZotdgMLC4HAEn7RByMxIZlwNRAADcxncJ1P/WohdD9bFOV8qP6cN+5xgyQABIj7ZvurFHbTlYhhjsI0brCHX42MyIUH86FlTqP+miIADQFAOTIJQSDN4CvmI1jDrzIgnF7KhO7P2syZd5rOS9WblGEOw3QAEgTMcaa8yeOUGIlckI/ADUwjN+8iBkmJZA/KC4S0ekqTdE8Jle0AUIG0NwlBur8il5ZhgxfmC4HQO7WFWQGz+hB6KZ2ONfbWNmj7a2rDO3qttre2TdJFE0xriJfS6sn9+tCSEEE6NE5s25+ySNO3uw+D7TOJMOeBGr8qLyb+YuSv7ZpnUjRb2D+CjpH6SLIFH0rdI+zBlShSAvfoQLzMs4TO68QwM34owuY8vE5T+Z9UaRh20XekXFszXex2013LQg0ciPc2ra9IdQFCjWGZloKJKZivW4dh9LDr8teGFrnFNtNNa6VIPmNpeA9GGS0tUh+tn3SVYlMaMiuNubeSSJUmA5G5qfpr3koASgdWIAIjvpEbXBuREjEhzYae2AUuksNCCpua3qXyp+JQBDMyrsiH5ZOECABZ8cRW2rywk39I3DTNDkPV8pH8BT/U3hjiKkYIWPGG8+T+KQC0TLs9ss2djhYte8BqzUgBBLPOz9xfGPKCIqzyU9fmQxiCqgIA0lk3t9BWdAuLV5XbXyNGVC8/GnAx8ero6OaiZFiW2pAVI/nSyunR0WmkBKbcdvW9V46b2G/kgyIKLhgCoRVf67I3WjClDa64A27UhF7YH0UqRlmsYUv7l/V5c1HbYVk/OL9CVr1XtA82i1AgznjhKIYCYw1nxDlGCA2VmLeu5wuUQKCFxu2Q8lvcridDU0WzhEIn2KmfPrB/KEj/RAmfe8+EnBGFw5dfRfjWkiliHjIhHIk5y26+qo33T5Hw1uKjIJB6xoTi+UuyyfbQSQVBdXn1AtVNbmPxqnJfCCJZXzzHNt6ghJA7Be2xw/ppsl7DENV3og0li2aF12QLmH6Gxw6yKzDts6/MYES1zZ8Y0kZljUfS28KJWpOQAba8FGawqvx3KyGieCZKv22+Z2f24/UzRTBxXQLMeemgPlGR/27ec3a61HTKvytKJ6vD83vxbL08UpZ+402qqeKXLcJeiqNEvTD/He4cd/gS6R/A6TJbg7iuBduw5tjgLZwIqgJg0Rs1haxF4WvqOelAze/nqFGm38el8T/5m/GyKn5dxnODEOswGua+nB2TDkUFNvi2a/8SCAcxPwAiRGZFmfDfdA8K7St+5u9l29yT6Xr5lxV4xJh0gvZzILBbQbZJ7gcCAeFe9izGWdALKxeO4hGT0sE2uFkaOCjsws2YwB/CLW2TTPpAkPE0IPrZD5I0ZMLPaCctgDfUfhMJP5gT91zRyy6K1aO/bLKkiYTB/6D9ULQn+lm8o7/GG1itcLTo1SDDBH/7A3nqknw8HwQbE/BP6Yb+KQY9tOvxH8Wg6mIzxqzl0x9oDC58lq/rb2PYQz1VTozRIvqRoVjZWiD+9vnPP3+3XAWz1tgceC4+8FAq6G85G0IH6UnwBt8YEAv+2NePjyf8L3BsHxkQazH8LvS4lZrEvPZff/7s3rvQ/AOrpUjz8/Oa7b6+59UPzZvrvWPtBxWy3fj3vK4x4TjGBGlh2G38e139UogR2EKSu/PBhP3pDY/rNBXiIGTIBHcH7gk7HMHxrponH83TpIwEYSIJl1CwiUTy1zbHMzyq/sn1VclI0U1RAUgSCadwu9TIn96PvB9U+29OV4ySkU+lUvk7DFguJ+whgeOa32Avo/ZGqWTc3dxbD6p4Tc3+8OT+6Obmfoh/b2CAZm8yJfLOeBsRapujo9OjN/cnw76/YmofE7a5nxpAw5DFm+wZWlPUttzu6jcqo2GKgeP8NLuJmugdt7v6jcqgEljbdCbUOv4mbKISWNtChHGJE73UO8hLdfkLNr4RCjFaBxO2ecJEEL3UR2hf0b+E2E4neB/tTNyoQC/1ISKs+yfZS0I7iPoIEiaCmyLhpkmIHoL387yDMOEQ/ide3tQEwi34st7HjuxbwjMNdR8Rvt8SCTswWdYz0JETce9PYxwEzZbIZiBhti0QxoMjRNhE9EF/zWQ4IcIgosieiYRlk/AMebDbHf1mbenQQGg4apsSIZq01tFDiA/c7ug3C441YCBoJ21LIuxjQng123a7o9+sEx0ZCBLqnY5ImMkmICF8CD4mHOHuI8KTjm7GGPS/gybM9Tp6CNkztzv6zRri7sOkoY8wYRwv9QPLQlYdPQRt0+2OfrP6ddR9GE30ISbUttA8DRAC1ISmDOu+JszUUXWLCPuYUB+iyWr2PZy0AkIYcHS/FsCYENR+gDCRxYSJOBqVcHSCHJLIgio54d8SX0ETUlA3QMJgBhEC70RZA8cfwAudNR70ZQWc6bR1OJcpo6kNmJghQu0MxRZECK+aswK9vOWvAqo53BrUdS0ez2r6EBOWUV6APgtdFxIiy4LGAz0LGur1+ObIJxPwTOdsEAyWkQabsC4CMQV4J7IdBIZpAuQQaDxUGHbauDF4U9sXpmxmxEqheQZRNhVzqo2rRkAI8wSYnspvnmJPn0KZ0VZbB96oBTOIEFURaCoKpjFndWDb+mDLByv5dmpmhltnZfgb+pqma+0+noaj+Rmay70Hf2wG4c16vR5sb458ttqtNEedLahNoK0ONFITTtfQwmgffhEDLa8BE6MGSB1/mpKqE4SlbhYNszZaotn025AbI5A8yjpcj6njzN6HtEEtfuaX9DBe/Q4Yjlo8AVMembr00f8VRFzTs/5ID84agkj65QsIJXV4fn2Ls9jorJyFMab+5cuXgW9SvVWZfobKEiqb7J7f4uhMM80000wT0fqS9VKyZr0oaymZfLjRJJXcXsVfoFjdTjq1SS+fH8M2e9y12n4BHWkPHOwtO54Mbuzg754Ejs+Xn7TXj9ey2U2sgm031ncWSIM1+/ct7KzbvbGyyzc62HfhiHRS6AJitDrUNn+/ht9XkN8nfqnN4cMXpm7HfUs/gSpim3TBenfD7n1rkoW27RrtKVPVnl0fAtz374CWjsWb8BcubR9MILC7/ogPLyhTlEMfBIdLH0gUioNxoF5wH77j1GiKiA6WgGrQRtJQKqybv5JoLxqH7P0Ya2qOWmP/5sLexvLyxh4NmIEDMqQ4S+zuVJZhNknz76s0asv73FMg1k+ySwfnlUZjef8FuzKtcMP+SfKjjmlm1R25o7vUrOeW9ykN9lnmUHxpYVaWmb9PhU+p0L5z8SFJzYg7v0pesuBDoQ/46QHFxt/1pv6xy8dX+mnbE+RiKtj1gfUfdWLJCkj9dkHMmzRqoVerth9OL79QpiCKIiV4EkZQxCNB8yXXgPhaQ3wfDUlwkK2TD5dmgTQw156cxyrSeYvDkBEEyQvc36aI/63J7yM3VhX2mHbkRmRo7Ms3JiACYrlBerfMouYqd5s8GdmE9HHAhEk82ToB5D1kwjJnKja5iRmXeDI/jTNDyoF1Dk0CcZo+vmPrh+853nlqrZtB0zpdJlnkHP7MtXXUrDoagRh/iY5Jm8dnusCCbSXypCLmsUm+a9Q1uT5TvXQYhux5JOlDsgxDNhAnXxH/v4Qvre/jCHepG8jamBrhGC89HktoDiSbjLbBCAuOrmzGIJth/ORiHLICYwn3GYekVXaHpH/rh5vW3X06EEc9mC0cCMk1Sx7lszwxZ0VuRAbHNMoLktcs0YDMTRwIKYjsZ3RmmmQgFl8mdragT0B01iZNoGh160BIApHs3yTOYP8lj0mKNXS2P/lkobAZmTiiWHXrREhbCL3nik34efQ5Cc5Mn8J0amD20Ll4ypX9ToSs6n/JLMFX9OiJ0Vd7zJvZ4seU1ofZEtruBvon1ze4OtyZkD2awA6iWRdXRdE16o+Bg33Lh9vkyYloie/Wi0KBxxtHKCxgHRQK8qIo9vo17sqx+OHTSIZYY1aUxhIq1tVgK2H6+IEGU9GY9bCxhOsvxr3RBFhacLhvrbsmqIpDJx4gVNKW5XoroWUp2Q1Au50FMGrwf7jqyWbcnDu+j3NCmxVnm12RSWtbWtN+0WjQZ23W+LYFeU0ajAcVrrYgakgP8MBmoj95pStsbRNvrm2bJiRu6hAZGpyJChWheuIarYqN3FKtsr+zs7/RMN0xubNvzuWS56vj9vxqlZ29vfNt/D5bQthog2vkaznGJf+psfrSbseXLLD531bbDoPTTJLTKG4nq6RDgCVOOuVN3gmITITkNaxjh+v+E50HiaUzTTkudesJxUoSbv6VpqXENHYkJi22LXxOImqFTowW/B9JgbiiobBfWd7mp5/+H4VQXJEva1rV+6TlWHRN9azMROWAaLNd41vZLoD8VVwUa2lV5jv4awQZTjWBcdeV2nbSWtpY3QWJcOG4sD+NsxUuKb20NJU9iJlmmmmmmWaaaaaZZpppppkepf8BMDUllmUtJJYAAAAASUVORK5CYII=;" parent="1" vertex="1">
          <mxGeometry x="-223" y="895.5" width="53" height="53" as="geometry" />
        </mxCell>
        <mxCell id="7Gss2XMQbhKtfwvC3-nR-2" value="" style="shape=image;verticalLabelPosition=bottom;labelBackgroundColor=default;verticalAlign=top;aspect=fixed;imageAspect=0;image=data:image/png,iVBORw0KGgoAAAANSUhEUgAAAOEAAADhCAMAAAAJbSJIAAABR1BMVEX///8AAAD/cz7j9v3N7ff/azz/bz+z0fP/X0Kvz/Ll+P0EBwfm7/v/cTv/cj7h4eHs7OzK8//AwMD/bjX/ay3/Wzv/qXj5+fn/9/X/bzff8/z/Y0H/WThNTU1ra2vU8Pm82PX/UCr/glS1tbXD3fb/VTFaWlrz8/Otra3Y2Nj/aSjPz8///Pr/sJb/vaejo6OOjo43Nzd1dXXT6vmWlpb/lnL/ybgaGhovLy9ZWVnK4vff7Pvu9Pz/7+z/mokpKSn/z8f/hnH/oYH/hln/5Nv/2s6EhITtppDzlHjosaH/bFDR4+r/dlz/r6H/pZb/jXreysXiv7b1i2v/k2H/nm3wnoT6fVXprJzroJbmr6nfwsHyinv/aUz3eWT/vbLluq2wiX/bYTCCMAO3TSEpGRReIwQ2GhCrTyxvNR9QJxePQybDw9n/XAA1R4+fAAASPklEQVR4nO2d6V8aSRrHGwxyKGDbzXAIhqtVDk8EEwQvwEzUqElmJ3MYs7Ozu5mdzf//euvoOrsbTVbo7vnwe7Ej3QWpbz9PPU89VQWrKDPNNNNMM80000wzzTTTTDPNNEWle4uH3WoRqlptHS723O7Qk6p3WC2Go5LCxe5i2u2ePYXSi90w4ql2W60cVqvVNZHDXb/bsgfxwtVWbi6GNAdl/plrdYsAsuhnyMMitFJrjqBJApdzLQhZ9SnjITBfteVAxyhz0MzFRbd7+/UCfOFubjyeCTkHDVn0mR17oM+A72E805AtaG8/RdYu6O/cY/koY/jQ7X4/Vr1wtPho+zFfrfrGjIfAQR8z/iyM0Ix+GI3VaJgzYExReFic8Z0QY8CMnvfUdDFa5EcgvAZf5p4/f8br+XM7zlgL2N9thPECQ7ArOCi6mBPpGKUlGkHEqtsQ49SLSoBzMHTY82HJlozlQJhyG8NZwIItDjCdhgMvNg4QWtJHiGkBEMQYpTcezpYxNhf2rKMKgCizzT2KUPJVaEVvIha5MRhDV3KPBJTMCBG9mDS60SoFRHk7ZoeiAtmbkRvAMKJ6r9g4jBZpH5GHWgyoqpe127efPv1yW3tmg8mbESJ6bQKX5mYyqG9SBFWf3b4aZHWoel2ff/fp0gIpIFY9F1CLLMpAwLTM97pc1+KJIFQISq+/ux2HOOe1oXjIBiEE7El8HwBekGoeMYbqP8qMHGIsF416aRaeDoed06B6W9aDgkKm6t8/Ux0Rq55KGV3qoxBQdFH1Qz0eDNojavM1R0Tgp96Jpz0WR+FL0fXauswXDCZC1IxvJUSWUlseCjbVKImj8JUYRd9pECluRhlpKNogsulNrOiZYMNMCH1UyIPq99CCicTgfTlrb8RQXYo3cx40omBCYSajvkKAwe+A3sftjRiq1xyGomeMyEwIE4UAeIvGYPwHSPhdOWFvxNC8OHBznjMiDaQWH30Wx3ZDgN8NBCNyhPoHBz8F4dQTOTEcZj4qJAr1FYoywTgmLDu5qaOfxrqeWLVZJEUTNKEQRy817JfxAQT8wSlhAH3vYMRcNOw2ngKdNEdHoWjCD5pJAxF/CCacCfVLh5FY9ELWDxeZk4qpMEjdMp7NSglRInxlb0QQa9yfuvV4JxW6eWszmbEPNaFQ3CHte8FNuyQZKtKyjPq37OMJHWONB6JpMepgQjVomXA7E+qvHdy0627S7x0e9sgwjMk1xWV9LKBIKEdT4qYw6S8euragkYaHKcgwTMtrh7WvIvxReC9zUzAQwT/iFuJiNByma6SKFEnVt+MDjUQozdyYm4bhv+FWysCEOYdh+OmrCKWMyAiLrhOayxeWYai+1hKhlZVIJLKyMu9IuIIFgqlESAdi1X1CGmjEFWD1Qz7CtJKwIVzh7ss2JAMRBFO3CYsOgeanVCSSMoxUJG8g1JAEmIB8qbwBlIdNTy9VW8KW64RVGmiEwumjEcmXbk6G/Ux/9OaiBM0kAkK+0sf7k+Hw5P6qlAKwDQHRi4R8KL1IRUpHfdry5CIvIs4DQK5B/wg8g5KwnEEIc24TknSo8ITqaT6SOuGbNo8M3lGBBVMRocEJ8NR8zS+E6s9GxBhJjSEijalgDKaG4v0heCgXqoVwzpOEl6VI6cTS+jRF/RT4aGko3x+WIsbPqi8I1Z/yqRvSZilJ/uqnqBFXIvk3rAGZkl3nI3detKFNpLmL5M0Ysr4WCBw3GMEKMeFd07y4FwgcVPCfmUjE+EWVCN0fhzaxtFFKnZotdgMLC4HAEn7RByMxIZlwNRAADcxncJ1P/WohdD9bFOV8qP6cN+5xgyQABIj7ZvurFHbTlYhhjsI0brCHX42MyIUH86FlTqP+miIADQFAOTIJQSDN4CvmI1jDrzIgnF7KhO7P2syZd5rOS9WblGEOw3QAEgTMcaa8yeOUGIlckI/ADUwjN+8iBkmJZA/KC4S0ekqTdE8Jle0AUIG0NwlBur8il5ZhgxfmC4HQO7WFWQGz+hB6KZ2ONfbWNmj7a2rDO3qttre2TdJFE0xriJfS6sn9+tCSEEE6NE5s25+ySNO3uw+D7TOJMOeBGr8qLyb+YuSv7ZpnUjRb2D+CjpH6SLIFH0rdI+zBlShSAvfoQLzMs4TO68QwM34owuY8vE5T+Z9UaRh20XekXFszXex2013LQg0ciPc2ra9IdQFCjWGZloKJKZivW4dh9LDr8teGFrnFNtNNa6VIPmNpeA9GGS0tUh+tn3SVYlMaMiuNubeSSJUmA5G5qfpr3koASgdWIAIjvpEbXBuREjEhzYae2AUuksNCCpua3qXyp+JQBDMyrsiH5ZOECABZ8cRW2rywk39I3DTNDkPV8pH8BT/U3hjiKkYIWPGG8+T+KQC0TLs9ss2djhYte8BqzUgBBLPOz9xfGPKCIqzyU9fmQxiCqgIA0lk3t9BWdAuLV5XbXyNGVC8/GnAx8ero6OaiZFiW2pAVI/nSyunR0WmkBKbcdvW9V46b2G/kgyIKLhgCoRVf67I3WjClDa64A27UhF7YH0UqRlmsYUv7l/V5c1HbYVk/OL9CVr1XtA82i1AgznjhKIYCYw1nxDlGCA2VmLeu5wuUQKCFxu2Q8lvcridDU0WzhEIn2KmfPrB/KEj/RAmfe8+EnBGFw5dfRfjWkiliHjIhHIk5y26+qo33T5Hw1uKjIJB6xoTi+UuyyfbQSQVBdXn1AtVNbmPxqnJfCCJZXzzHNt6ghJA7Be2xw/ppsl7DENV3og0li2aF12QLmH6Gxw6yKzDts6/MYES1zZ8Y0kZljUfS28KJWpOQAba8FGawqvx3KyGieCZKv22+Z2f24/UzRTBxXQLMeemgPlGR/27ec3a61HTKvytKJ6vD83vxbL08UpZ+402qqeKXLcJeiqNEvTD/He4cd/gS6R/A6TJbg7iuBduw5tjgLZwIqgJg0Rs1haxF4WvqOelAze/nqFGm38el8T/5m/GyKn5dxnODEOswGua+nB2TDkUFNvi2a/8SCAcxPwAiRGZFmfDfdA8K7St+5u9l29yT6Xr5lxV4xJh0gvZzILBbQbZJ7gcCAeFe9izGWdALKxeO4hGT0sE2uFkaOCjsws2YwB/CLW2TTPpAkPE0IPrZD5I0ZMLPaCctgDfUfhMJP5gT91zRyy6K1aO/bLKkiYTB/6D9ULQn+lm8o7/GG1itcLTo1SDDBH/7A3nqknw8HwQbE/BP6Yb+KQY9tOvxH8Wg6mIzxqzl0x9oDC58lq/rb2PYQz1VTozRIvqRoVjZWiD+9vnPP3+3XAWz1tgceC4+8FAq6G85G0IH6UnwBt8YEAv+2NePjyf8L3BsHxkQazH8LvS4lZrEvPZff/7s3rvQ/AOrpUjz8/Oa7b6+59UPzZvrvWPtBxWy3fj3vK4x4TjGBGlh2G38e139UogR2EKSu/PBhP3pDY/rNBXiIGTIBHcH7gk7HMHxrponH83TpIwEYSIJl1CwiUTy1zbHMzyq/sn1VclI0U1RAUgSCadwu9TIn96PvB9U+29OV4ySkU+lUvk7DFguJ+whgeOa32Avo/ZGqWTc3dxbD6p4Tc3+8OT+6Obmfoh/b2CAZm8yJfLOeBsRapujo9OjN/cnw76/YmofE7a5nxpAw5DFm+wZWlPUttzu6jcqo2GKgeP8NLuJmugdt7v6jcqgEljbdCbUOv4mbKISWNtChHGJE73UO8hLdfkLNr4RCjFaBxO2ecJEEL3UR2hf0b+E2E4neB/tTNyoQC/1ISKs+yfZS0I7iPoIEiaCmyLhpkmIHoL387yDMOEQ/ide3tQEwi34st7HjuxbwjMNdR8Rvt8SCTswWdYz0JETce9PYxwEzZbIZiBhti0QxoMjRNhE9EF/zWQ4IcIgosieiYRlk/AMebDbHf1mbenQQGg4apsSIZq01tFDiA/c7ug3C441YCBoJ21LIuxjQng123a7o9+sEx0ZCBLqnY5ImMkmICF8CD4mHOHuI8KTjm7GGPS/gybM9Tp6CNkztzv6zRri7sOkoY8wYRwv9QPLQlYdPQRt0+2OfrP6ddR9GE30ISbUttA8DRAC1ISmDOu+JszUUXWLCPuYUB+iyWr2PZy0AkIYcHS/FsCYENR+gDCRxYSJOBqVcHSCHJLIgio54d8SX0ETUlA3QMJgBhEC70RZA8cfwAudNR70ZQWc6bR1OJcpo6kNmJghQu0MxRZECK+aswK9vOWvAqo53BrUdS0ez2r6EBOWUV6APgtdFxIiy4LGAz0LGur1+ObIJxPwTOdsEAyWkQabsC4CMQV4J7IdBIZpAuQQaDxUGHbauDF4U9sXpmxmxEqheQZRNhVzqo2rRkAI8wSYnspvnmJPn0KZ0VZbB96oBTOIEFURaCoKpjFndWDb+mDLByv5dmpmhltnZfgb+pqma+0+noaj+Rmay70Hf2wG4c16vR5sb458ttqtNEedLahNoK0ONFITTtfQwmgffhEDLa8BE6MGSB1/mpKqE4SlbhYNszZaotn025AbI5A8yjpcj6njzN6HtEEtfuaX9DBe/Q4Yjlo8AVMembr00f8VRFzTs/5ID84agkj65QsIJXV4fn2Ls9jorJyFMab+5cuXgW9SvVWZfobKEiqb7J7f4uhMM80000wT0fqS9VKyZr0oaymZfLjRJJXcXsVfoFjdTjq1SS+fH8M2e9y12n4BHWkPHOwtO54Mbuzg754Ejs+Xn7TXj9ey2U2sgm031ncWSIM1+/ct7KzbvbGyyzc62HfhiHRS6AJitDrUNn+/ht9XkN8nfqnN4cMXpm7HfUs/gSpim3TBenfD7n1rkoW27RrtKVPVnl0fAtz374CWjsWb8BcubR9MILC7/ogPLyhTlEMfBIdLH0gUioNxoF5wH77j1GiKiA6WgGrQRtJQKqybv5JoLxqH7P0Ya2qOWmP/5sLexvLyxh4NmIEDMqQ4S+zuVJZhNknz76s0asv73FMg1k+ySwfnlUZjef8FuzKtcMP+SfKjjmlm1R25o7vUrOeW9ykN9lnmUHxpYVaWmb9PhU+p0L5z8SFJzYg7v0pesuBDoQ/46QHFxt/1pv6xy8dX+mnbE+RiKtj1gfUfdWLJCkj9dkHMmzRqoVerth9OL79QpiCKIiV4EkZQxCNB8yXXgPhaQ3wfDUlwkK2TD5dmgTQw156cxyrSeYvDkBEEyQvc36aI/63J7yM3VhX2mHbkRmRo7Ms3JiACYrlBerfMouYqd5s8GdmE9HHAhEk82ToB5D1kwjJnKja5iRmXeDI/jTNDyoF1Dk0CcZo+vmPrh+853nlqrZtB0zpdJlnkHP7MtXXUrDoagRh/iY5Jm8dnusCCbSXypCLmsUm+a9Q1uT5TvXQYhux5JOlDsgxDNhAnXxH/v4Qvre/jCHepG8jamBrhGC89HktoDiSbjLbBCAuOrmzGIJth/ORiHLICYwn3GYekVXaHpH/rh5vW3X06EEc9mC0cCMk1Sx7lszwxZ0VuRAbHNMoLktcs0YDMTRwIKYjsZ3RmmmQgFl8mdragT0B01iZNoGh160BIApHs3yTOYP8lj0mKNXS2P/lkobAZmTiiWHXrREhbCL3nik34efQ5Cc5Mn8J0amD20Ll4ypX9ToSs6n/JLMFX9OiJ0Vd7zJvZ4seU1ofZEtruBvon1ze4OtyZkD2awA6iWRdXRdE16o+Bg33Lh9vkyYloie/Wi0KBxxtHKCxgHRQK8qIo9vo17sqx+OHTSIZYY1aUxhIq1tVgK2H6+IEGU9GY9bCxhOsvxr3RBFhacLhvrbsmqIpDJx4gVNKW5XoroWUp2Q1Au50FMGrwf7jqyWbcnDu+j3NCmxVnm12RSWtbWtN+0WjQZ23W+LYFeU0ajAcVrrYgakgP8MBmoj95pStsbRNvrm2bJiRu6hAZGpyJChWheuIarYqN3FKtsr+zs7/RMN0xubNvzuWS56vj9vxqlZ29vfNt/D5bQthog2vkaznGJf+psfrSbseXLLD531bbDoPTTJLTKG4nq6RDgCVOOuVN3gmITITkNaxjh+v+E50HiaUzTTkudesJxUoSbv6VpqXENHYkJi22LXxOImqFTowW/B9JgbiiobBfWd7mp5/+H4VQXJEva1rV+6TlWHRN9azMROWAaLNd41vZLoD8VVwUa2lV5jv4awQZTjWBcdeV2nbSWtpY3QWJcOG4sD+NsxUuKb20NJU9iJlmmmmmmWaaaaaZZpppppkepf8BMDUllmUtJJYAAAAASUVORK5CYII=;" parent="1" vertex="1">
          <mxGeometry x="391" y="1079" width="53" height="53" as="geometry" />
        </mxCell>
        <mxCell id="fCiBUrxiR4FyChu-y8---1" value="" style="shape=image;verticalLabelPosition=bottom;labelBackgroundColor=default;verticalAlign=top;aspect=fixed;imageAspect=0;image=https://upload.wikimedia.org/wikipedia/commons/8/8a/2048_logo.png;" vertex="1" parent="1">
          <mxGeometry x="744.25" y="538" width="50" height="50" as="geometry" />
        </mxCell>
        <mxCell id="fCiBUrxiR4FyChu-y8---2" value="containous/whoami" style="whiteSpace=wrap;html=1;align=center;verticalAlign=bottom;" vertex="1" parent="1">
          <mxGeometry x="708" y="369.5" width="120" height="60" as="geometry" />
        </mxCell>
        <mxCell id="fCiBUrxiR4FyChu-y8---3" value="" style="shape=image;imageAspect=0;aspect=fixed;verticalLabelPosition=bottom;verticalAlign=top;fontSize=12;image=https://upload.wikimedia.org/wikipedia/commons/thumb/1/11/Blue_question_mark_icon.svg/2048px-Blue_question_mark_icon.svg.png;" vertex="1" parent="1">
          <mxGeometry x="748.75" y="371.5" width="38.5" height="38.5" as="geometry" />
        </mxCell>
        <mxCell id="fCiBUrxiR4FyChu-y8---4" value="containous/whoami" style="whiteSpace=wrap;html=1;align=center;verticalAlign=bottom;" vertex="1" parent="1">
          <mxGeometry x="708" y="437" width="120" height="60" as="geometry" />
        </mxCell>
        <mxCell id="fCiBUrxiR4FyChu-y8---5" value="" style="shape=image;imageAspect=0;aspect=fixed;verticalLabelPosition=bottom;verticalAlign=top;fontSize=12;image=https://upload.wikimedia.org/wikipedia/commons/thumb/1/11/Blue_question_mark_icon.svg/2048px-Blue_question_mark_icon.svg.png;" vertex="1" parent="1">
          <mxGeometry x="748.75" y="439" width="38.5" height="38.5" as="geometry" />
        </mxCell>
        <mxCell id="fCiBUrxiR4FyChu-y8---6" value="" style="shape=image;verticalLabelPosition=bottom;labelBackgroundColor=default;verticalAlign=top;aspect=fixed;imageAspect=0;image=data:image/png,iVBORw0KGgoAAAANSUhEUgAAAmMAAAHLCAYAAACEb59jAAAABHNCSVQICAgIfAhkiAAAABl0RVh0U29mdHdhcmUAZ25vbWUtc2NyZWVuc2hvdO8Dvz4AAAAudEVYdENyZWF0aW9uIFRpbWUAU2F0IDMxIE1heSAyMDI1IDA2OjIyOjMyIFBNIENFU1R5p+Q9AAALLklEQVR4nO3du2qUWx/A4TWfFtlYC6bw7C1IvAxrtTGF0U60sfFUWIignaCIVlp7GYq3oHgqEvECtJHZxW5Ev2w8zMwv7jwP/JuXzFrvVPnxrklmMsaYDgAAEv+rbwAAYDsTYwAAoZ3fXphOnVoCAMzDZDL57tp3MbbZDwIA8Os2e+DlmBIAICTGAABCYgwAICTGAABCYgwAICTGAABCYgwAICTGAABCYgwAICTGAABCYgwAICTGAABCYgwAICTGAABCYgwAICTGAABCYgwAICTGAABCYgwAICTGAABCYgwAICTGAABCYgwAICTGAABCYgwAICTGAABCYgwAICTGAABCYgwAICTGAABCYgwAICTGAABCYgwAICTGAABCYgwAICTGAABCYgwAICTGAABCYgwAICTGAABCYgwAICTGAABCYgwAICTGAABCYgwAICTGAABCYgwAICTGAABCYgwAICTGAABCYgwAICTGAABCYgwAICTGAABCYgwAICTGAABCYgwAICTGAABCYgwAICTGAABCYgwAICTGAABCYgwAICTGAABCYgwAICTGAABCYgwAICTGAABCYgwAICTGAABCYgwAICTGAABCYgwAICTGAABCYgwAICTGAABCYgwAICTGAABCYgwAICTGAABCYgwAICTGAABCYgwAICTGAABCYgwAICTGAABCYgwAICTGAABCYgwAICTGAABCYgwAICTGAABCYgwAICTGAABCYgwAICTGAABCYgwAICTGAABCYgwAICTGAABCYgwAICTGAABCYgwAICTGAABCYgwAICTGAABCYgwAICTGAABCYgwAICTGAABCYgwAICTGAABCYgwAICTGAABCYgwAICTGAABCYgwAICTGAABCYgwAICTGAABCYgwAICTGAABCYgwAICTGAABCYgwAICTGAABCYgwAICTGAABCYgwAICTGAABCYgwAICTGAABCYgwAICTGAABCYgwAICTGAABCYgwAICTGAABCYgwAICTGAABCYgwAICTGAABCYgwAICTGAABCYgwAICTGAABCYgwAICTGAABCYgwAICTGAABCYgwAICTGAABCYgwAICTGAABCYgwAICTGAABCYgwAICTGAABCYgwAICTGAABCYgwAICTGAABCYgwAICTGAABCYgwAICTGAABCYgwAICTGAABCYgwAICTGAABCYgwAICTGAABCYgwAICTGAABCYgwAICTGAABCYgwAICTGAABCYgwAILSzvgH41rFjx8aJEyfG0aNHx/Ly8ti9e/cYY4yPHz+O9fX18eLFi/H48ePx/Pnz+E4B4PdNxhjTry9Mp9MxmUyi22G7WlpaGqurq+PixYvj0KFDP/Saly9fjtu3b49Hjx6Nz58/z/kOAeD3bNZYYozUrl27xrlz58bFixfHnj17fmmNjY2NcevWrXH37l1RBsCW9W+NNf16ptPp9Ntrxsxrrl27Np2VK1eu5O/HGGOM2Ww2ayxPxkjs2LFj3L9/f6yurs503YcPH44zZ86ML1++zHRdAPhdmzWWv6YkcePGjZmH2BhjrK6ujhs3bsx8XQCYpx96hGbMrObSpUszO5rczPnz5/P3aYwxxnw9jinZEpaWlsbr169/+cP6P2p9fX0cPnx4fPr0aa77AMCPckzJlnD27Nm5h9gYYywvL4+1tbW57wMAv8uTMRZmMpmMt2/fjr179y5kv3fv3o0DBw6Mf54KA0DLkzFyKysrCwuxMcbYt2/fWFlZWdh+APArxBgLc/z48W2xJwD8DDHGwhw7dmxb7AkAP0OMsTCL+OD+VtgTAH6GGGNhxBgAfE+MAQCExBgLs7GxsS32BICfIcZYGDEGAN8TYyzMs2fPtsWeAPAzxBgL8/Tp022xJwD8DF+HxMJMJpPx5s2bsW/fvoXs9/79+7F//35fhwTAluDrkMhNp9Nx586dhe13+/ZtIQbAlufJGAv1119/jVevXo3l5eW57rOxsTEOHjw4Pn/+PNd9AOBHeTLGlvDp06dx5cqVue9z+fJlIQbAH0GMsXAPHjwYN2/enNv6N2/eHA8ePJjb+gAwS44pydy7d2+cOXNmpmvev39/rK2tzXRNAJgFx5RsOWtra+Pq1aszW+/69etCDIA/0vTrmf7z52fGLGxOnTo1/fDhw/RXffjwYXrq1Kn8fRhjjDH/Nps1lmNKtoSlpaVx+vTpceHChXHkyJEfes3Lly/HnTt3xsOHD31YH4Atb7PGEmNsOSsrK+PkyZPj6NGjY3l5eezevXuMMcbHjx/H+vr6ePHixXjy5ImvOgLgjyLGAGbIPxT+b/N7kHnwAX4AgC1IjAEAhMQYAEBIjAEAhMQYAEBIjAEAhMQYAEBIjAEAhMQYAEBIjAEAhMQYAEBIjAEAhMQYAEBIjAEAhMQYAEBIjAEAhMQYAEBIjAEAhMQYAEBIjAEAhMQYAEBIjAEAhMQYAEBIjAEAhMQYAEBIjAEAhMQYAEBIjAEAhMQYAEBoZ30DAH+iyWRS3wLwH+HJGABASIwBAITEGABASIwBAITEGABASIwBAITEGABASIwBAITEGABASIwBAITEGABASIwBAITEGABASIwBAITEGABASIwBAITEGABASIwBAITEGABASIwBAITEGABASIwBAITEGABASIwBAITEGABASIwBAITEGABASIwBAITEGABASIwBAITEGABASIwBAITEGABASIwBAITEGABASIwBAITEGABASIwBAITEGABASIwBAITEGABASIwBAITEGABASIwBAITEGABASIwBAITEGABASIwBAITEGABASIwBAITEGABASIwBAITEGABASIwBAITEGABASIwBAITEGABASIwBAITEGABASIwBAITEGABASIwBAITEGABASIwBAITEGABASIwBAITEGABASIwBAITEGABASIwBAITEGABASIwBAITEGABASIwBAITEGABASIwBAITEGABASIwBAITEGABASIwBAITEGABASIwBAITEGABASIwBAITEGABASIwBAITEGABASIwBAITEGABASIwBAITEGABASIwBAITEGABASIwBAITEGABASIwBAITEGABASIwBAITEGABASIwBAITEGABASIwBAITEGABASIwBAITEGABASIwBAITEGABASIwBAITEGABASIwBAITEGABASIwBAITEGABASIwBAITEGABASIwBAITEGABASIwBAITEGABASIwBAITEGABASIwBAITEGABASIwBAITEGABASIwBAITEGABASIwBAITEGABASIwBAITEGABASIwBAITEGABASIwBAITEGABASIwBAITEGABASIwBAITEGABASIwBAITEGABASIwBAITEGABASIwBAITEGABASIwBAITEGABASIwBAITEGABASIwBAITEGABASIwBAITEGABASIwBAITEGABASIwBAITEGABASIwBAITEGABASIwBAITEGABASIwBAITEGABASIwBAITEGABASIwBAITEGABASIwBAITEGABASIwBAITEGABASIwBAITEGABASIwBAITEGABASIwBAITEGABASIwBAITEGABASIwBAITEGABASIwBAITEGABASIwBAITEGABASIwBAITEGABASIwBAITEGABASIwBAITEGABASIwBAITEGABASIwBAITEGABASIwBAITEGABASIwBAITEGABASIwBAITEGABASIwBAITEGABASIwBAITEGABASIwBAITEGABASIwBAITEGABAaOf/uzidThd9HwAA29JkjKG8AAAijikBAEJiDAAgJMYAAEJ/A+Vs/SKB25XrAAAAAElFTkSuQmCC;" vertex="1" parent="1">
          <mxGeometry x="709.7" y="219" width="61.22" height="46" as="geometry" />
        </mxCell>
        <mxCell id="fCiBUrxiR4FyChu-y8---12" style="edgeStyle=orthogonalEdgeStyle;rounded=0;orthogonalLoop=1;jettySize=auto;html=1;" edge="1" parent="1" source="ugX7uagLTzUMmo3rIZk3-156" target="ugX7uagLTzUMmo3rIZk3-160">
          <mxGeometry relative="1" as="geometry">
            <mxPoint x="479" y="1090" as="sourcePoint" />
            <mxPoint x="479" y="1169" as="targetPoint" />
          </mxGeometry>
        </mxCell>
        <mxCell id="fCiBUrxiR4FyChu-y8---13" value="&lt;font style=&quot;font-size: 21px;&quot;&gt;Deploy&lt;/font&gt;" style="edgeLabel;html=1;align=center;verticalAlign=middle;resizable=0;points=[];" vertex="1" connectable="0" parent="fCiBUrxiR4FyChu-y8---12">
          <mxGeometry x="-0.1083" y="-1" relative="1" as="geometry">
            <mxPoint as="offset" />
          </mxGeometry>
        </mxCell>
        <mxCell id="fCiBUrxiR4FyChu-y8---24" style="edgeStyle=orthogonalEdgeStyle;rounded=0;orthogonalLoop=1;jettySize=auto;html=1;entryX=0;entryY=0.75;entryDx=0;entryDy=0;" edge="1" parent="1">
          <mxGeometry relative="1" as="geometry">
            <mxPoint x="720" y="899" as="sourcePoint" />
            <mxPoint x="738.71" y="899" as="targetPoint" />
            <Array as="points">
              <mxPoint x="730" y="899" />
              <mxPoint x="730" y="899" />
            </Array>
          </mxGeometry>
        </mxCell>
        <mxCell id="fCiBUrxiR4FyChu-y8---14" value="&lt;font style=&quot;font-size: 21px;&quot;&gt;CI&lt;/font&gt;" style="rounded=0;whiteSpace=wrap;html=1;" vertex="1" parent="1">
          <mxGeometry x="565.92" y="833" width="154.08" height="126" as="geometry" />
        </mxCell>
        <mxCell id="fCiBUrxiR4FyChu-y8---16" value="&lt;font style=&quot;font-size: 21px;&quot;&gt;Registry&lt;/font&gt;" style="rounded=0;whiteSpace=wrap;html=1;verticalAlign=top;" vertex="1" parent="1">
          <mxGeometry x="738.71" y="820" width="161.29" height="160" as="geometry" />
        </mxCell>
        <mxCell id="fCiBUrxiR4FyChu-y8---18" value="APP v1&amp;nbsp; &amp;nbsp; &amp;nbsp; &amp;nbsp;" style="whiteSpace=wrap;html=1;align=right;" vertex="1" parent="1">
          <mxGeometry x="745.5" y="859" width="147.5" height="51" as="geometry" />
        </mxCell>
        <mxCell id="fCiBUrxiR4FyChu-y8---19" value="APP v2&amp;nbsp; &amp;nbsp; &amp;nbsp; &amp;nbsp;" style="whiteSpace=wrap;html=1;align=right;" vertex="1" parent="1">
          <mxGeometry x="745.5" y="914" width="147.5" height="52" as="geometry" />
        </mxCell>
        <mxCell id="fCiBUrxiR4FyChu-y8---20" value="" style="shape=image;imageAspect=0;aspect=fixed;verticalLabelPosition=bottom;verticalAlign=top;fontSize=12;image=https://upload.wikimedia.org/wikipedia/commons/thumb/1/11/Blue_question_mark_icon.svg/2048px-Blue_question_mark_icon.svg.png;" vertex="1" parent="1">
          <mxGeometry x="755.5" y="866" width="37" height="37" as="geometry" />
        </mxCell>
        <mxCell id="fCiBUrxiR4FyChu-y8---22" value="" style="shape=image;imageAspect=0;aspect=fixed;verticalLabelPosition=bottom;verticalAlign=top;fontSize=12;image=https://upload.wikimedia.org/wikipedia/commons/thumb/1/11/Blue_question_mark_icon.svg/2048px-Blue_question_mark_icon.svg.png;" vertex="1" parent="1">
          <mxGeometry x="756" y="921" width="37" height="37" as="geometry" />
        </mxCell>
        <mxCell id="ugX7uagLTzUMmo3rIZk3-175" style="edgeStyle=orthogonalEdgeStyle;rounded=0;orthogonalLoop=1;jettySize=auto;html=1;fontSize=21;" parent="1" source="fCiBUrxiR4FyChu-y8---19" target="ugX7uagLTzUMmo3rIZk3-160" edge="1">
          <mxGeometry relative="1" as="geometry">
            <Array as="points">
              <mxPoint x="816" y="1200" />
            </Array>
          </mxGeometry>
        </mxCell>
        <mxCell id="ugX7uagLTzUMmo3rIZk3-178" style="edgeStyle=orthogonalEdgeStyle;rounded=0;orthogonalLoop=1;jettySize=auto;html=1;fontSize=21;" parent="1" source="fCiBUrxiR4FyChu-y8---18" target="ugX7uagLTzUMmo3rIZk3-160" edge="1">
          <mxGeometry relative="1" as="geometry">
            <Array as="points">
              <mxPoint x="910" y="885" />
              <mxPoint x="910" y="1200" />
            </Array>
          </mxGeometry>
        </mxCell>
        <mxCell id="ugX7uagLTzUMmo3rIZk3-179" value="Pull" style="edgeLabel;html=1;align=center;verticalAlign=middle;resizable=0;points=[];fontSize=21;labelBackgroundColor=#FFFFFF;" parent="ugX7uagLTzUMmo3rIZk3-178" vertex="1" connectable="0">
          <mxGeometry x="0.2975" y="-3" relative="1" as="geometry">
            <mxPoint x="-106" y="3" as="offset" />
          </mxGeometry>
        </mxCell>
        <mxCell id="fCiBUrxiR4FyChu-y8---27" style="edgeStyle=orthogonalEdgeStyle;rounded=0;orthogonalLoop=1;jettySize=auto;html=1;" edge="1" parent="1" source="fCiBUrxiR4FyChu-y8---26" target="fCiBUrxiR4FyChu-y8---14">
          <mxGeometry relative="1" as="geometry" />
        </mxCell>
        <mxCell id="fCiBUrxiR4FyChu-y8---26" value="&lt;div align=&quot;right&quot;&gt;App repo&amp;nbsp; &lt;br&gt;&lt;/div&gt;" style="rounded=0;whiteSpace=wrap;html=1;fontSize=21;align=right;" vertex="1" parent="1">
          <mxGeometry x="385" y="866" width="162" height="60" as="geometry" />
        </mxCell>
        <mxCell id="fCiBUrxiR4FyChu-y8---28" value="" style="shape=image;verticalLabelPosition=bottom;labelBackgroundColor=default;verticalAlign=top;aspect=fixed;imageAspect=0;image=https://hub.datree.io/img/cicd/3.png;" vertex="1" parent="1">
          <mxGeometry x="573.16" y="841" width="30.42" height="34" as="geometry" />
        </mxCell>
        <mxCell id="fCiBUrxiR4FyChu-y8---29" value="" style="shape=image;imageAspect=0;aspect=fixed;verticalLabelPosition=bottom;verticalAlign=top;fontSize=12;image=https://upload.wikimedia.org/wikipedia/commons/thumb/1/11/Blue_question_mark_icon.svg/2048px-Blue_question_mark_icon.svg.png;" vertex="1" parent="1">
          <mxGeometry x="396" y="877" width="37" height="37" as="geometry" />
        </mxCell>
        <mxCell id="fCiBUrxiR4FyChu-y8---30" value="" style="shape=image;verticalLabelPosition=bottom;labelBackgroundColor=default;verticalAlign=top;aspect=fixed;imageAspect=0;image=data:image/png,iVBORw0KGgoAAAANSUhEUgAAAMoAAAD5CAMAAABRVVqZAAAAtFBMVEX/////xhw4R0X/xQD/yRP/7sH/6an/xRX/++z/0Dr/0EkwQD6KkpFJV1bd4N80REKqsK//zSz/9dWYn53/2mj/1FL/8sr4+fny8/P/+N///vd4goE/Tkz//PIrPTvN0tG+w8L/+eb/4IXo6umFjYz/7rn/5Zn/3nmaoaBdaWdoc3FFU1Hj5eVSXl27wL/X2tr/5p7/2F7/4o3/3n3/10f/7LH/3HH/006mq6shNjRibm1veXh/44B8AAALx0lEQVR4nO1deWOiPhN2AUVFjUcr1gvqVRWvdlfrW7//93rBik4gCYgJ1f7y/LWrkOTJHJmZxDSTkZCQkJCQkJCQkOCP1+Z4m7snbMf1fAIe9c2zpmrqfcEd0fv25Uoiu5qu/7lH6H8Kg9f4RPIbTf3pIdOhq7VtO65Inu+YiAdd28UTTL1wn6oFoX/Gsf9m7f6ZuFyK0db/+gAy8aA/R9lL++nO7eQM9SOCSk776SHGRi3LZNJ7CEP5hv7OVLHco6iXB40llt7z4wjFFctfBpXsIwnFFQvDIQ8ei4q6pVN5fyT9YmpYu/hgVJ7oVi9kpde9TENIysBY8fMCqOh/ngab3OStqAlou0gNKgVQUd+b3zOX3/BffVOlom0urb9wdyppUtE3sPmXT97Np0dFf8Pbr9e4Np8mlVpwNf7guwSnRyXs9l8elkou1APnDlKjQgjCnx6USq0Z6uEv1yT1Z6n8Hqnsfo9UfpGtSCoUSCoJIKnEh6SSAJJKfEgqCSCpxEeKVOqSSlxIKgkgqcTHj1LhW2v9USp89zollQSQVOJDUkkASSU+JJUEkFTiQ1JJ0NEvolIIn3GSVGg9SCrXdySpXNHDT1Lhe8rlR6n8e1AqhHXlQakQTlP0+B6TT/GMS+gHAJzPMadIpRDoqc35nF6K58G0Dd7+mGvr6R44xK2lzvsgaKpnJ2vjS+tN7geyUz3RqmsfJ4/8Onnww7mujmnPk2w29y7iNz4pU/EPsgtoOH0q4iCp3CMklXuEpHKPkFTuEZLKNT3waCRWR0KpqKpWq2kaM+bSVc0Fh7hMJBW99jbuuYlvfcBoSXuf1HvtfHNQvDXTF0dFV5+a/m8uX3aUpvRazu//dXDjbyVFUdHVT+zXyeTfdekFeHSv/nQTGUFU9MIEb7dN/Jl44BBie/x8AxkhVHR1EKqq5gn1u/DdGL1cLbHJCKCia0+kuxUmIS56kXArzusgabLMn4pa2/RIzYV/0am/EX+K3XxO5ph5U9G1DaXBfGg3Rd2Qn8yMP5OQ4UtF13bh08Qn9EJ1VXVMffYjwTTypKKrz9TBXUfFXYnervZlHKmohRy1rQxRwcK/X72g3Xy6Usu4UdG1N/ZtUGGzVwfMFzKbwlVkOFFxHXB4UwtHeI0kOmOI9lUmw4eKWtgSHTDAK2GJ1CcRL2Xqu/gmw4OKWvuIIpLpEQNKLUqUmUz2Pa6W3U7FNZLoAfXeiPuO+r/oV9u5mFN6KxVdfWdfzHVEnbZXpxdYXuyE10ksLbuRil7cRN+U+PpBD6tYiyqYiqcYefVNVFRCBBxGjp0f6rWP6PsJ2+N/kSZzAxVd/Rut6ZlsdDyl1ibRonVNJiL8T04llpq/xMtyVWJaEGzrja1lialog0gHnOlN4iZSuhrHZNhbsUmpaNE60d5ecyWqazLR15O+sLgkpKLuIpnUd1eGg27IENlokzUZyajUopxOgiDdSxKyUWQmdEEno6LvInrcJCvQ6X/+Rnh3UrXjJioaI2lyjSRbTFw2VdUJ22ToZ3ySUSEcU7vg5Ypoljgixk2FrLtfElEhHR48vzVIXsk6tc4M68I1KEFU2tubq9he+xo9IPrgrGB/KNPWvK3qe4FaIBfTMhlaIT2xByPeHnyjkeA9aEViXNRmDCoZlU9CJ5Hx3pVkVFJK1+S9roTrPu3xdeWROFDDJpNnRC4JqeAbI15uJOQWZ60YMBnWNVxJw0m9AKSfj5exJoAXywDRMy8STBzk6zV/Wc5v+BpJoB9tV/8OzNpN9mneG7JItTDIZbPbj1t2quJAre024+x4EqXDt+T2urhbcAMdqXFOKf6m0xT0S4DbvC9RFQzG1cycr44QDtbGAOc7VEWDtfPUfJw/w+CBlaSHt9zuGeyNp/FDaRizVMqIqO8OLP91FMvDWAvpV3G4WB7mbzFQjzOckf98DC5qVGEuQ9ptv0eoT9G1eO8O+PuXi/oe74/h5RNUf1OFHmNX4YT2+F7/Ap4HPZibRyiZmyemkZdcCy9hKm6v/EuLr9u/zwXtzlArvA+ySf5kZO+lnr0v1F/i+C0JCQkJCQkJCQkJCQkJCQkJCQkJif8mzOHa3jdGnU5purIWLYE9DRulCyz8uxX4qjQ13U8qoxIL1RCP9b4z6/b7hod+H5XnpdVQFJWK893Psa899pX1P+PylWIHPwqj3wkQsTvu8JFyAUJGv1uqCKJSvnSFsFm1wDeKsfr+rK8wgHAqlXkXER9zSkL0jEqlNYNMSpmrqazKBu05Yy5CMDQqrQ4YiFEyr6ayMogiOT1ZDpilSCoNwAQtfVONT8UiK9elSf46RqGyR7DbszrEpjJcMpkoSt8XtGgq2Jx27fPTsalMMSZHXUO46TjrVKisl2Hn9U0l5IwxV3umssC8n9KwLcuypw4kYxzSoII5L6UEnw4ukY1Dl0TFhoM++Po5LIGHlS7vtZJAxRyBgfQ7TPtcfIF5dmz/49KlBbRcnJ82p9CZ8HZiBCqY8/piMlmBt42vy5gP4GMoVRPIG63C7XGmYgMlQGWmca4cMOTDRWGghvaxEAKIxQhFbLyp4M6LpQStUv/8KEJT4FyhK8apgHky9sEGOVNZYCbPmrgW0CLkYE9CKgYWzVhdrDeRVMwD9KIlxovrGdCVQBwCqSBsAXFlfoQX8tsCqSirzBSsgQbLedlAD9FhgX9pfsFgYQa4WF2nvJx9uXlYdcU7dMGkYgP5KwYrTNoDJv1OaIWAsajrji+qNLSs9WLY4h60BKggx4a+ckl3Xq0REJ5DMN8qFqSg/qy6EDJ6DJDKsgQHYFPfWWCTPq0sQrO8hsu61zRajmyReb0HzFYgHGpcscZzKteQnVmgLGB2gmmXmwk7He7mEY+K0aC8sQq/4XokpYORsbqEJl3ZNCxxbKhUFIe8PFYoOZXRxWymREwHkNE92KKshk4FUaLwKu15A1YfWmQu7mPKTBAZOhWlT4la/LXHW+pwwUCdbH3RqxTiKy7BLmcUyy8dk0K0nM2WXWy82AJulhCt6b6IKgWLCjVKOsaRI3sxHC6sEfbCHE63uVpSBVO2yU0Lo7KkiMU8zM7TuoLvG/gIhyWHUkJCXf6VMBYVBdEccgvM/h6+EHQVlUaZrGbGgbu9BKigLrYgxJk7rE4UTtgr1VmfJBrumVdIKjYWPhmdGH4TlgKIWe66MVPCy2pXZGR8dKctLEBnppEnrMAKgsip4dAahaxGaJlC6TfMQOEHzaLFsoZUaNaVGdodnIzYhHh2lDlMJJV+dF2kQqVitjDnbGPVVzTivOgTikdYKEhaJ83hGo4iTGVYWdur6nTU+cIT0cUcmtWcs7FElfSwBL+1WK/2o8OsjPGDhWQ09R5bOo4X1hjICAy34sBJEk8ls8CspXtO3O2vstF3PSsyvqBU9pCK10TrvGuHgqtHJ6TOYqlg9cmLTpsjv+6F5oCKOYcW4Lmli8aF1BOU9NJQMFcs+O6I5VPxP8U2eiplKELvi+FFTEFnDibJSMHsM97uG2BinGRgXrQDxloluNN3rN+1YF0JGy+UoPDq5DfwbQnl2yGbl0Gj2cWAwgI0YXFyCtUIPozAdAikklnB8fkR8h4q+ndpyZzCJdZXf2Dcbtx4ThrNKSiXp7K/cgS2Tp50YQ3pKZ2VZTfwjMTXOyzwd3O0UtW27OoI3/WixgW8qWC7jv52zwHzbO6yEQhF/Eo37tQU7zmE8PiYmgvxp4JZsz/ItYMNMQBjfh6dFY6EA+Be/GZQWWNFIuM7canSMlzvbQckN40IKoi1ScCbCi4Wf9lu0EsPsGDvers+gww6huDpUQmskyeHXKUcwTFGeMJJe/D4sFMVUQmjU8FiKwX5YZfl5rfhWSaU8605MRF2fcCXiNKRF6sayEcg3TaXl69cBzT1P7YPDlQz99+zPSmcMq1ROVD1c/9bHokh4sZL08YFgU6sBsT+rBQtqzE/H71DM/rBO7NSHc2U05NuUK3MRtW1+I2Wa1FZ7aeNaZyRLezqvuE+uhJ0Ok9CQkJCQkJC4p7wf7+LXj+XPs9QAAAAAElFTkSuQmCC;" vertex="1" parent="1">
          <mxGeometry x="638.5899999999999" y="206" width="43.81" height="54" as="geometry" />
        </mxCell>
      </root>
    </mxGraphModel>
  </diagram>
</mxfile>
